<svg width="226" height="85" viewBox="0 0 226 85" fill="none" xmlns="http://www.w3.org/2000/svg">
<g clip-path="url(#clip0_18_414)">
<path d="M58.4624 37.9752C58.1995 29.1216 50.9161 22 42 22C33.0838 22 25.8004 29.1216 25.5375 37.9752L24.3529 39.1598V47.1932L25.5294 48.3696V53.8431C25.5294 57.0435 28.133 59.6471 31.3333 59.6471H32.7906C33.2762 61.0164 34.5839 62 36.1176 62H38.4706C40.0053 62 41.3137 61.015 41.7986 59.6442C41.8658 59.6454 41.9331 59.6471 42 59.6471C47.6814 59.6471 52.4351 55.5987 53.5281 50.2353H56.6049L59.647 47.1932V39.1598L58.4624 37.9752ZM42 24.3529C48.9828 24.3529 54.7969 29.4493 55.9204 36.1176H53.5281C52.4351 30.7542 47.6814 26.7059 42 26.7059C36.3186 26.7059 31.5648 30.7542 30.4718 36.1176H28.0795C29.203 29.4493 35.0171 24.3529 42 24.3529ZM51.1139 36.1176C47.3109 36.1063 44.6246 36.3379 42.4098 33.1004L41.3344 31.5284L40.4102 33.1938C39.0635 35.6204 37.2499 36.1176 34.9411 36.1176H32.886C33.9335 32.0629 37.6225 29.0588 42 29.0588C46.3775 29.0588 50.0665 32.0629 51.1139 36.1176ZM30.2353 47.8824H28.3696L26.7058 46.2186V40.1344L28.3696 38.4706H30.2353V47.8824ZM27.8823 53.8431V50.2353H30.4695C30.9124 52.4294 31.9721 54.4435 33.542 56.0611C33.2129 56.4127 32.9548 56.8311 32.7906 57.2941H31.3333C29.4304 57.2941 27.8823 55.746 27.8823 53.8431ZM38.4706 59.6471H36.1176C35.4688 59.6471 34.9411 59.1194 34.9411 58.4706C34.9411 57.8219 35.4688 57.2941 36.1176 57.2941H38.4706C39.1193 57.2941 39.647 57.8219 39.647 58.4706C39.647 59.1194 39.1193 59.6471 38.4706 59.6471ZM51.4117 47.8824C51.4117 53.072 47.1896 57.2941 42 57.2941C41.9325 57.2941 41.8645 57.2928 41.7966 57.2912C41.3102 55.9234 40.0032 54.9412 38.4706 54.9412C36.0549 54.9465 36.0934 54.9291 35.7923 54.9568C33.7498 53.1665 32.5882 50.6166 32.5882 47.8824V38.4706H34.9411C37.0233 38.4706 39.5589 38.1273 41.5218 35.7384C44.1116 38.4524 47.2764 38.4706 50.1175 38.4706H51.4117V47.8824ZM57.2941 46.2186L55.6303 47.8824H53.7647V38.4706H55.6303L57.2941 40.1344V46.2186Z" fill="#3A3A3A"/>
</g>
<path d="M86.558 36H94.856V34.002H89.636L92.48 31.158C93.686 29.934 94.622 28.62 94.622 27.054C94.622 24.552 92.66 23.166 90.59 23.166C88.916 23.166 87.332 23.994 86.522 25.722L88.268 26.748C88.754 25.74 89.564 25.182 90.608 25.182C91.688 25.182 92.552 25.866 92.552 27.126C92.552 28.08 91.85 28.998 90.95 29.898L86.558 34.38V36ZM105.398 31.806H103.958V28.53H101.87V31.806H97.9277L102.266 23.4H100.016L95.6777 31.806V33.732H101.87V36H103.958V33.732H105.398V31.806ZM111.825 37.8L119.025 21.6H118.035L110.835 37.8H111.825ZM124.432 23.4V25.38H130.192L125.836 36H128.014L132.442 25.2V23.4H124.432ZM142.94 36.234C145.568 36.234 147.404 34.83 147.404 32.526C147.404 30.024 145.298 29.376 143.21 28.71C141.374 28.134 140.672 27.72 140.672 26.748C140.672 25.794 141.446 25.182 142.652 25.182C144.056 25.182 144.848 25.938 145.298 26.946L147.044 25.938C146.252 24.264 144.722 23.166 142.652 23.166C140.528 23.166 138.602 24.48 138.602 26.802C138.602 29.178 140.51 29.898 142.472 30.492C144.344 31.068 145.334 31.446 145.334 32.562C145.334 33.48 144.632 34.218 142.994 34.218C141.284 34.218 140.312 33.372 139.862 32.094L138.08 33.138C138.746 35.01 140.456 36.234 142.94 36.234ZM155.145 27V31.824C155.145 33.66 154.137 34.416 152.859 34.416C151.635 34.416 150.843 33.696 150.843 32.328V27H148.899V32.526C148.899 34.866 150.339 36.234 152.355 36.234C153.579 36.234 154.551 35.784 155.145 34.848V36H157.089V27H155.145ZM164.457 26.766C163.053 26.766 161.991 27.342 161.307 28.296V27H159.363V39.6H161.307V34.722C161.991 35.658 163.053 36.234 164.457 36.234C166.905 36.234 168.939 34.182 168.939 31.5C168.939 28.836 166.905 26.766 164.457 26.766ZM164.151 34.38C162.531 34.38 161.307 33.174 161.307 31.5C161.307 29.826 162.531 28.62 164.151 28.62C165.771 28.62 166.995 29.826 166.995 31.5C166.995 33.174 165.771 34.38 164.151 34.38ZM175.794 26.766C174.39 26.766 173.328 27.342 172.644 28.296V27H170.7V39.6H172.644V34.722C173.328 35.658 174.39 36.234 175.794 36.234C178.242 36.234 180.276 34.182 180.276 31.5C180.276 28.836 178.242 26.766 175.794 26.766ZM175.488 34.38C173.868 34.38 172.644 33.174 172.644 31.5C172.644 29.826 173.868 28.62 175.488 28.62C177.108 28.62 178.332 29.826 178.332 31.5C178.332 33.174 177.108 34.38 175.488 34.38ZM186.286 36.234C188.932 36.234 191.038 34.164 191.038 31.5C191.038 28.818 188.932 26.766 186.286 26.766C183.658 26.766 181.534 28.818 181.534 31.5C181.534 34.164 183.658 36.234 186.286 36.234ZM186.286 34.344C184.702 34.344 183.478 33.138 183.478 31.5C183.478 29.862 184.702 28.656 186.286 28.656C187.87 28.656 189.094 29.862 189.094 31.5C189.094 33.138 187.87 34.344 186.286 34.344ZM194.74 28.512V27H192.796V36H194.74V31.464C194.74 29.448 196.234 28.854 197.512 28.944V26.838C196.378 26.838 195.28 27.288 194.74 28.512ZM204.199 28.872V27H201.967V24.48L200.023 25.056V27H198.367V28.872H200.023V33.192C200.023 35.532 201.211 36.36 204.199 36V34.254C202.723 34.326 201.967 34.344 201.967 33.192V28.872H204.199Z" fill="#3A3A3A"/>
<path d="M91.568 50.8H87.2V62H91.568C94.656 62 96.88 59.504 96.88 56.4C96.88 53.296 94.656 50.8 91.568 50.8ZM91.568 60.592H88.688V52.208H91.568C93.872 52.208 95.456 54.032 95.456 56.4C95.456 58.768 93.872 60.592 91.568 60.592ZM99.5164 58.64H106.22C106.252 58.432 106.268 58.224 106.268 58.016C106.268 55.776 104.7 53.792 102.284 53.792C99.7884 53.792 98.0924 55.632 98.0924 58C98.0924 60.4 99.8044 62.208 102.38 62.208C103.98 62.208 105.196 61.488 105.9 60.4L104.716 59.728C104.316 60.384 103.516 60.896 102.412 60.896C100.924 60.896 99.7884 60.08 99.5164 58.64ZM102.284 55.104C103.484 55.104 104.62 55.84 104.86 57.424H99.5164C99.7404 56.032 100.78 55.104 102.284 55.104ZM114.477 50.8V55.376C113.837 54.4 112.813 53.792 111.453 53.792C109.229 53.792 107.405 55.632 107.405 58C107.405 60.368 109.229 62.208 111.453 62.208C112.813 62.208 113.837 61.6 114.477 60.624V62H115.869V50.8H114.477ZM111.629 60.864C110.029 60.864 108.797 59.632 108.797 58C108.797 56.368 110.029 55.136 111.629 55.136C113.245 55.136 114.477 56.368 114.477 58C114.477 59.632 113.245 60.864 111.629 60.864ZM118.682 52.544C119.194 52.544 119.61 52.128 119.61 51.616C119.61 51.104 119.194 50.672 118.682 50.672C118.154 50.672 117.738 51.104 117.738 51.616C117.738 52.128 118.154 52.544 118.682 52.544ZM117.978 62H119.37V54H117.978V62ZM125.254 62.208C126.822 62.208 128.182 61.376 128.854 60.128L127.67 59.44C127.222 60.272 126.342 60.832 125.254 60.832C123.654 60.832 122.438 59.6 122.438 58C122.438 56.384 123.654 55.152 125.254 55.152C126.326 55.152 127.222 55.712 127.622 56.56L128.79 55.888C128.182 54.624 126.838 53.792 125.254 53.792C122.838 53.792 121.046 55.632 121.046 58C121.046 60.368 122.838 62.208 125.254 62.208ZM136.743 54V55.376C136.103 54.4 135.079 53.792 133.719 53.792C131.495 53.792 129.671 55.632 129.671 58C129.671 60.368 131.495 62.208 133.719 62.208C135.079 62.208 136.103 61.6 136.743 60.624V62H138.135V54H136.743ZM133.895 60.864C132.295 60.864 131.062 59.632 131.062 58C131.062 56.368 132.295 55.136 133.895 55.136C135.511 55.136 136.743 56.368 136.743 58C136.743 59.632 135.511 60.864 133.895 60.864ZM144.596 55.344V54H142.468V51.76L141.076 52.176V54H139.492V55.344H141.076V59.68C141.076 61.68 142.196 62.32 144.596 62V60.752C143.172 60.816 142.468 60.896 142.468 59.68V55.344H144.596ZM146.813 58.64H153.517C153.549 58.432 153.565 58.224 153.565 58.016C153.565 55.776 151.997 53.792 149.581 53.792C147.085 53.792 145.389 55.632 145.389 58C145.389 60.4 147.101 62.208 149.677 62.208C151.277 62.208 152.493 61.488 153.197 60.4L152.013 59.728C151.613 60.384 150.813 60.896 149.709 60.896C148.221 60.896 147.085 60.08 146.813 58.64ZM149.581 55.104C150.781 55.104 151.917 55.84 152.157 57.424H146.813C147.037 56.032 148.077 55.104 149.581 55.104ZM161.774 50.8V55.376C161.134 54.4 160.11 53.792 158.75 53.792C156.526 53.792 154.702 55.632 154.702 58C154.702 60.368 156.526 62.208 158.75 62.208C160.11 62.208 161.134 61.6 161.774 60.624V62H163.166V50.8H161.774ZM158.926 60.864C157.326 60.864 156.094 59.632 156.094 58C156.094 56.368 157.326 55.136 158.926 55.136C160.542 55.136 161.774 56.368 161.774 58C161.774 59.632 160.542 60.864 158.926 60.864ZM170.475 56.16C170.475 55.44 171.179 55.088 171.899 55.088C172.603 55.088 173.307 55.392 173.611 56.112L174.779 55.456C174.267 54.416 173.211 53.792 171.899 53.792C170.283 53.792 169.067 54.768 169.067 56.176C169.067 59.072 173.547 58.096 173.547 59.808C173.547 60.592 172.811 60.896 171.963 60.896C170.971 60.896 170.235 60.416 169.979 59.648L168.779 60.336C169.243 61.44 170.363 62.208 171.963 62.208C173.675 62.208 174.955 61.296 174.955 59.808C174.955 56.864 170.475 57.872 170.475 56.16ZM182.045 54V58.24C182.045 60.128 181.005 60.88 179.725 60.88C178.493 60.88 177.741 60.144 177.741 58.832V54H176.349V58.912C176.349 60.96 177.581 62.208 179.453 62.208C180.573 62.208 181.453 61.792 182.045 60.848V62H183.437V54H182.045ZM189.972 53.792C188.612 53.792 187.588 54.4 186.948 55.376V54H185.556V65.2H186.948V60.624C187.588 61.6 188.612 62.208 189.972 62.208C192.196 62.208 194.02 60.368 194.02 58C194.02 55.632 192.196 53.792 189.972 53.792ZM189.796 60.864C188.18 60.864 186.948 59.632 186.948 58C186.948 56.368 188.18 55.136 189.796 55.136C191.396 55.136 192.628 56.368 192.628 58C192.628 59.632 191.396 60.864 189.796 60.864ZM200.097 53.792C198.737 53.792 197.713 54.4 197.073 55.376V54H195.681V65.2H197.073V60.624C197.713 61.6 198.737 62.208 200.097 62.208C202.321 62.208 204.145 60.368 204.145 58C204.145 55.632 202.321 53.792 200.097 53.792ZM199.921 60.864C198.305 60.864 197.073 59.632 197.073 58C197.073 56.368 198.305 55.136 199.921 55.136C201.521 55.136 202.753 56.368 202.753 58C202.753 59.632 201.521 60.864 199.921 60.864ZM209.566 62.208C211.902 62.208 213.79 60.368 213.79 58C213.79 55.632 211.902 53.792 209.566 53.792C207.23 53.792 205.358 55.632 205.358 58C205.358 60.368 207.23 62.208 209.566 62.208ZM209.566 60.848C207.982 60.848 206.75 59.616 206.75 58C206.75 56.384 207.982 55.152 209.566 55.152C211.166 55.152 212.398 56.384 212.398 58C212.398 59.616 211.166 60.848 209.566 60.848ZM216.823 55.344V54H215.431V62H216.823V57.76C216.823 55.872 218.119 55.264 219.319 55.312V53.856C218.311 53.856 217.335 54.224 216.823 55.344ZM225.221 55.344V54H223.093V51.76L221.701 52.176V54H220.117V55.344H221.701V59.68C221.701 61.68 222.821 62.32 225.221 62V60.752C223.797 60.816 223.093 60.896 223.093 59.68V55.344H225.221Z" fill="#898989"/>
<defs>
<clipPath id="clip0_18_414">
<rect width="40" height="40" fill="white" transform="translate(22 22)"/>
</clipPath>
</defs>
</svg>
