<svg width="247" height="85" viewBox="0 0 247 85" fill="none" xmlns="http://www.w3.org/2000/svg">
<g clip-path="url(#clip0_18_410)">
<path d="M59.8573 36.1741C59.3295 34.5397 59.5545 32.0864 58.1827 30.1921C56.8 28.2829 54.3952 27.7402 53.0373 26.7471C51.6938 25.7644 50.4438 23.6261 48.1837 22.8886C45.9873 22.1718 43.7414 23.1444 42 23.1444C40.2588 23.1444 38.013 22.1716 35.8163 22.8885C33.5566 23.6258 32.3056 25.7647 30.9629 26.7468C29.6065 27.7388 27.1999 28.2829 25.8175 30.1918C24.4468 32.0846 24.6695 34.5436 24.1427 36.174C23.6413 37.7258 22 39.5882 22 42.0001C22 44.4135 23.6394 46.2687 24.1427 47.8261C24.6705 49.4605 24.4455 51.9139 25.8173 53.8082C27.1999 55.7175 29.6046 56.26 30.9627 57.2532C32.306 58.2357 33.5562 60.3743 35.8163 61.1117C38.0112 61.8279 40.2606 60.8558 42 60.8558C43.737 60.8558 45.9916 61.8269 48.1837 61.1118C50.4434 60.3744 51.6937 58.2361 53.0371 57.2534C54.3935 56.2614 56.8001 55.7173 58.1825 53.8084C59.5533 51.9156 59.3304 49.4568 59.8573 47.8262C60.3587 46.2743 62 44.4119 62 42.0001C62 39.5869 60.361 37.7322 59.8573 36.1741ZM56.8838 46.8653C56.2686 48.7696 56.4298 50.9007 55.6516 51.9753C54.863 53.0641 52.7913 53.5614 51.1926 54.7308C49.6114 55.8871 48.5032 57.7202 47.2143 58.1407C45.9949 58.5387 44.0077 57.7307 42.0001 57.7307C39.9777 57.7307 38.011 58.5404 36.7858 58.1407C35.497 57.7202 34.3904 55.8884 32.8075 54.7307C31.2183 53.5685 29.1347 53.0609 28.3484 51.9751C27.5727 50.9042 27.7278 48.7582 27.1163 46.8654C26.517 45.0107 25.125 43.4049 25.125 42.0001C25.125 40.594 26.5157 38.9936 27.1162 37.135C27.7314 35.2307 27.5702 33.0994 28.3484 32.025C29.1365 30.9368 31.2098 30.4379 32.8075 29.2694C34.3937 28.1093 35.4949 26.2807 36.7856 25.8595C38.004 25.462 39.9977 26.2696 41.9999 26.2696C44.0259 26.2696 45.9877 25.4593 47.2142 25.8595C48.5028 26.28 49.6104 28.1125 51.1926 29.2695C52.7816 30.4318 54.8653 30.9393 55.6516 32.025C56.4274 33.0962 56.2715 35.24 56.8837 37.1348V37.1349C57.483 38.9895 58.875 40.5954 58.875 42.0001C58.875 43.4063 57.4843 45.0066 56.8838 46.8653ZM49.1987 36.9849C49.8089 37.5951 49.8089 38.5844 49.1987 39.1946L41.3779 47.0154C40.7677 47.6256 39.7783 47.6255 39.1681 47.0154L34.8014 42.6486C34.1912 42.0384 34.1911 41.0491 34.8013 40.4389C35.4116 39.8288 36.401 39.8287 37.011 40.4389L40.273 43.7008L46.9888 36.985C47.5991 36.3747 48.5884 36.3747 49.1987 36.9849Z" fill="#3A3A3A"/>
</g>
<path d="M89.924 36H92.318L95 26.802L97.664 36H100.058L103.622 23.4H101.444L98.798 33.246L95.954 23.4H94.046L91.184 33.246L88.538 23.4H86.36L89.924 36ZM111.172 27V28.278C110.488 27.342 109.426 26.766 108.022 26.766C105.574 26.766 103.54 28.818 103.54 31.5C103.54 34.164 105.574 36.234 108.022 36.234C109.426 36.234 110.488 35.658 111.172 34.704V36H113.116V27H111.172ZM108.328 34.38C106.708 34.38 105.484 33.174 105.484 31.5C105.484 29.826 106.708 28.62 108.328 28.62C109.948 28.62 111.172 29.826 111.172 31.5C111.172 33.174 109.948 34.38 108.328 34.38ZM117.326 28.512V27H115.382V36H117.326V31.464C117.326 29.448 118.82 28.854 120.098 28.944V26.838C118.964 26.838 117.866 27.288 117.326 28.512ZM123.478 28.512V27H121.534V36H123.478V31.464C123.478 29.448 124.972 28.854 126.25 28.944V26.838C125.116 26.838 124.018 27.288 123.478 28.512ZM134.393 27V28.278C133.709 27.342 132.647 26.766 131.243 26.766C128.795 26.766 126.761 28.818 126.761 31.5C126.761 34.164 128.795 36.234 131.243 36.234C132.647 36.234 133.709 35.658 134.393 34.704V36H136.337V27H134.393ZM131.549 34.38C129.929 34.38 128.705 33.174 128.705 31.5C128.705 29.826 129.929 28.62 131.549 28.62C133.169 28.62 134.393 29.826 134.393 31.5C134.393 33.174 133.169 34.38 131.549 34.38ZM143.337 26.766C142.113 26.766 141.141 27.216 140.547 28.152V27H138.603V36H140.547V31.176C140.547 29.34 141.555 28.584 142.833 28.584C144.057 28.584 144.849 29.304 144.849 30.672V36H146.793V30.474C146.793 28.134 145.353 26.766 143.337 26.766ZM154.776 27L152.472 33.534L149.79 27H147.666L151.482 35.838L151.392 36.018C150.942 37.206 150.258 37.854 148.998 37.782V39.6C151.068 39.726 152.544 38.574 153.39 36.288L156.846 27H154.776ZM167.332 23.4H162.688V36H164.758V31.68H167.332C169.708 31.68 171.508 29.862 171.508 27.54C171.508 25.2 169.708 23.4 167.332 23.4ZM167.332 29.736H164.758V25.344H167.332C168.556 25.344 169.438 26.262 169.438 27.54C169.438 28.8 168.556 29.736 167.332 29.736ZM174.947 28.512V27H173.003V36H174.947V31.464C174.947 29.448 176.441 28.854 177.719 28.944V26.838C176.585 26.838 175.487 27.288 174.947 28.512ZM182.982 36.234C185.628 36.234 187.734 34.164 187.734 31.5C187.734 28.818 185.628 26.766 182.982 26.766C180.354 26.766 178.23 28.818 178.23 31.5C178.23 34.164 180.354 36.234 182.982 36.234ZM182.982 34.344C181.398 34.344 180.174 33.138 180.174 31.5C180.174 29.862 181.398 28.656 182.982 28.656C184.566 28.656 185.79 29.862 185.79 31.5C185.79 33.138 184.566 34.344 182.982 34.344ZM194.338 28.872V27H192.106V24.48L190.162 25.056V27H188.506V28.872H190.162V33.192C190.162 35.532 191.35 36.36 194.338 36V34.254C192.862 34.326 192.106 34.344 192.106 33.192V28.872H194.338ZM197.262 32.328H204.426C204.462 32.076 204.498 31.788 204.498 31.518C204.498 28.926 202.662 26.766 199.98 26.766C197.154 26.766 195.228 28.836 195.228 31.5C195.228 34.2 197.154 36.234 200.124 36.234C201.888 36.234 203.238 35.496 204.066 34.272L202.464 33.336C202.032 33.966 201.222 34.452 200.142 34.452C198.702 34.452 197.568 33.732 197.262 32.328ZM197.244 30.744C197.514 29.394 198.504 28.53 199.962 28.53C201.132 28.53 202.266 29.196 202.536 30.744H197.244ZM210.403 36.234C212.167 36.234 213.697 35.316 214.453 33.894L212.779 32.94C212.347 33.768 211.465 34.326 210.385 34.326C208.801 34.326 207.595 33.12 207.595 31.5C207.595 29.88 208.801 28.674 210.385 28.674C211.465 28.674 212.347 29.214 212.743 30.06L214.417 29.088C213.697 27.684 212.167 26.766 210.403 26.766C207.685 26.766 205.651 28.818 205.651 31.5C205.651 34.164 207.685 36.234 210.403 36.234ZM220.881 28.872V27H218.649V24.48L216.705 25.056V27H215.049V28.872H216.705V33.192C216.705 35.532 217.893 36.36 220.881 36V34.254C219.405 34.326 218.649 34.344 218.649 33.192V28.872H220.881ZM223.616 25.65C224.3 25.65 224.858 25.074 224.858 24.408C224.858 23.724 224.3 23.166 223.616 23.166C222.932 23.166 222.374 23.724 222.374 24.408C222.374 25.074 222.932 25.65 223.616 25.65ZM222.644 36H224.588V27H222.644V36ZM231.093 36.234C233.739 36.234 235.845 34.164 235.845 31.5C235.845 28.818 233.739 26.766 231.093 26.766C228.465 26.766 226.341 28.818 226.341 31.5C226.341 34.164 228.465 36.234 231.093 36.234ZM231.093 34.344C229.509 34.344 228.285 33.138 228.285 31.5C228.285 29.862 229.509 28.656 231.093 28.656C232.677 28.656 233.901 29.862 233.901 31.5C233.901 33.138 232.677 34.344 231.093 34.344ZM242.337 26.766C241.113 26.766 240.141 27.216 239.547 28.152V27H237.603V36H239.547V31.176C239.547 29.34 240.555 28.584 241.833 28.584C243.057 28.584 243.849 29.304 243.849 30.672V36H245.793V30.474C245.793 28.134 244.353 26.766 242.337 26.766Z" fill="#3A3A3A"/>
<path d="M92.4 62.208C95.648 62.208 98.208 59.616 98.208 56.4C98.208 53.168 95.648 50.592 92.4 50.592C89.152 50.592 86.608 53.168 86.608 56.4C86.608 59.616 89.152 62.208 92.4 62.208ZM92.4 60.752C89.952 60.752 88.08 58.848 88.08 56.4C88.08 53.936 89.952 52.032 92.4 52.032C94.848 52.032 96.72 53.936 96.72 56.4C96.72 58.848 94.848 60.752 92.4 60.752ZM105.453 54L102.941 60.512L100.429 54H98.9249L102.125 62H103.757L106.957 54H105.453ZM108.798 58.64H115.502C115.534 58.432 115.55 58.224 115.55 58.016C115.55 55.776 113.982 53.792 111.566 53.792C109.07 53.792 107.374 55.632 107.374 58C107.374 60.4 109.086 62.208 111.662 62.208C113.262 62.208 114.478 61.488 115.182 60.4L113.998 59.728C113.598 60.384 112.798 60.896 111.694 60.896C110.206 60.896 109.07 60.08 108.798 58.64ZM111.566 55.104C112.766 55.104 113.902 55.84 114.142 57.424H108.798C109.022 56.032 110.062 55.104 111.566 55.104ZM118.542 55.344V54H117.15V62H118.542V57.76C118.542 55.872 119.838 55.264 121.038 55.312V53.856C120.03 53.856 119.054 54.224 118.542 55.344ZM125.92 62H133.152V60.56H128.08L130.944 57.712C132.048 56.608 132.944 55.408 132.944 54.016C132.944 51.808 131.2 50.592 129.456 50.592C128 50.592 126.64 51.312 125.92 52.8L127.168 53.536C127.648 52.528 128.448 52.032 129.472 52.032C130.512 52.032 131.456 52.72 131.456 54.032C131.456 54.976 130.752 55.872 129.872 56.752L125.92 60.784V62ZM144.421 54L142.117 60.272L139.397 54H137.909L141.397 61.968L141.253 62.272C140.837 63.328 140.165 63.984 139.093 63.904V65.2C140.725 65.312 141.973 64.288 142.645 62.496L145.909 54H144.421ZM147.735 58.64H154.439C154.471 58.432 154.487 58.224 154.487 58.016C154.487 55.776 152.919 53.792 150.503 53.792C148.007 53.792 146.311 55.632 146.311 58C146.311 60.4 148.023 62.208 150.599 62.208C152.199 62.208 153.415 61.488 154.119 60.4L152.935 59.728C152.535 60.384 151.735 60.896 150.631 60.896C149.143 60.896 148.007 60.08 147.735 58.64ZM150.503 55.104C151.703 55.104 152.839 55.84 153.079 57.424H147.735C147.959 56.032 148.999 55.104 150.503 55.104ZM162.696 54V55.376C162.056 54.4 161.032 53.792 159.672 53.792C157.448 53.792 155.624 55.632 155.624 58C155.624 60.368 157.448 62.208 159.672 62.208C161.032 62.208 162.056 61.6 162.696 60.624V62H164.088V54H162.696ZM159.848 60.864C158.248 60.864 157.016 59.632 157.016 58C157.016 56.368 158.248 55.136 159.848 55.136C161.464 55.136 162.696 56.368 162.696 58C162.696 59.632 161.464 60.864 159.848 60.864ZM167.589 55.344V54H166.197V62H167.589V57.76C167.589 55.872 168.885 55.264 170.085 55.312V53.856C169.077 53.856 168.101 54.224 167.589 55.344ZM172.35 56.16C172.35 55.44 173.054 55.088 173.774 55.088C174.478 55.088 175.182 55.392 175.486 56.112L176.654 55.456C176.142 54.416 175.086 53.792 173.774 53.792C172.158 53.792 170.942 54.768 170.942 56.176C170.942 59.072 175.422 58.096 175.422 59.808C175.422 60.592 174.686 60.896 173.838 60.896C172.846 60.896 172.11 60.416 171.854 59.648L170.654 60.336C171.118 61.44 172.238 62.208 173.838 62.208C175.55 62.208 176.83 61.296 176.83 59.808C176.83 56.864 172.35 57.872 172.35 56.16Z" fill="#898989"/>
<defs>
<clipPath id="clip0_18_410">
<rect width="40" height="40" fill="white" transform="translate(22 22)"/>
</clipPath>
</defs>
</svg>
