<svg width="208" height="85" viewBox="0 0 208 85" fill="none" xmlns="http://www.w3.org/2000/svg">
<g clip-path="url(#clip0_18_409)">
<path d="M60.8986 43.7346V25.5198C60.8986 24.87 60.3718 24.3431 59.722 24.3431H28.1967C27.5469 24.3431 27.0201 24.87 27.0201 25.5198V45.1867C26.4525 45.2694 25.8975 45.4898 25.4066 45.8542C23.8591 46.9516 23.4931 49.4073 24.7894 50.9218L30.0893 57.347C33.37 61.1866 36.855 61.657 42.0359 61.657C46.4819 61.657 48.4696 61.6766 52.3443 60.7937L56.1173 59.8913C56.7291 60.7456 57.7003 61.299 58.7922 61.299H60.6508C62.4975 61.299 64 59.7163 64 57.7708V47.2523C64.0001 45.3947 62.63 43.8688 60.8986 43.7346ZM55.6098 46.1551L54.042 45.3588C51.4642 44.0577 48.4839 44.0095 45.8655 45.2269C45.1511 45.5079 43.5929 46.4506 42.7847 46.4191H37.3445C35.54 46.4191 34.0718 47.8872 34.0718 49.6918V50.5499C34.0617 50.5392 34.0511 50.5291 34.0411 50.5182L30.1562 46.3013C29.9211 46.0462 29.657 45.8326 29.3735 45.6613V33.9874H39.0027V38.3007C39.0027 38.9505 39.5295 39.4773 40.1794 39.4773H47.6042C48.254 39.4773 48.7808 38.9505 48.7808 38.3007V33.9874H58.5454V43.7346C57.1706 43.8408 56.0242 44.8243 55.6098 46.1551ZM41.356 33.9874H46.4274V37.124H41.356V33.9874ZM58.5453 31.634H48.7808V26.6965H58.5454V31.634H58.5453ZM46.4275 26.6965V31.6341H41.356V26.6965H46.4275ZM39.0026 26.6965V31.6341H29.3734V26.6965H39.0026ZM51.7982 58.5046C48.2188 59.3244 46.0631 59.2912 42.0781 59.2912C37.2146 59.2912 34.8646 59.2126 31.9048 55.8494L26.6049 49.4243C25.683 48.2238 27.3528 46.8067 28.4254 47.8957L32.3103 52.1127C33.3371 53.1961 34.6291 53.7923 36.2216 53.8274H46.9926C47.6425 53.8274 48.1693 53.3006 48.1693 52.6507C48.1693 52.0009 47.6425 51.4741 46.9926 51.4741H36.425V49.6916C36.425 49.1847 36.8374 48.7722 37.3444 48.7722H42.7847C44.0103 48.86 45.7793 47.8366 46.8575 47.3607C48.8186 46.4489 51.0508 46.485 52.9789 47.4581L55.4432 48.7098V57.6326L51.7982 58.5046ZM61.6467 57.7707C61.6467 58.4186 61.2 58.9456 60.6509 58.9456H58.7922C58.2431 58.9456 57.7965 58.4186 57.7965 57.7707V47.2523C57.7965 46.6044 58.2432 46.0773 58.7922 46.0773H60.6509C61.2 46.0773 61.6467 46.6044 61.6467 47.2523V57.7707Z" fill="#3A3A3A"/>
</g>
<path d="M96.64 25.38V23.4H89.26V36H91.33V30.888H96.46V28.908H91.33V25.38H96.64ZM100.394 28.512V27H98.4504V36H100.394V31.464C100.394 29.448 101.888 28.854 103.166 28.944V26.838C102.032 26.838 100.934 27.288 100.394 28.512ZM105.711 32.328H112.875C112.911 32.076 112.947 31.788 112.947 31.518C112.947 28.926 111.111 26.766 108.429 26.766C105.603 26.766 103.677 28.836 103.677 31.5C103.677 34.2 105.603 36.234 108.573 36.234C110.337 36.234 111.687 35.496 112.515 34.272L110.913 33.336C110.481 33.966 109.671 34.452 108.591 34.452C107.151 34.452 106.017 33.732 105.711 32.328ZM105.693 30.744C105.963 29.394 106.953 28.53 108.411 28.53C109.581 28.53 110.715 29.196 110.985 30.744H105.693ZM116.135 32.328H123.299C123.335 32.076 123.371 31.788 123.371 31.518C123.371 28.926 121.535 26.766 118.853 26.766C116.027 26.766 114.101 28.836 114.101 31.5C114.101 34.2 116.027 36.234 118.997 36.234C120.761 36.234 122.111 35.496 122.939 34.272L121.337 33.336C120.905 33.966 120.095 34.452 119.015 34.452C117.575 34.452 116.441 33.732 116.135 32.328ZM116.117 30.744C116.387 29.394 117.377 28.53 118.835 28.53C120.005 28.53 121.139 29.196 121.409 30.744H116.117ZM133.901 36.234C136.529 36.234 138.365 34.83 138.365 32.526C138.365 30.024 136.259 29.376 134.171 28.71C132.335 28.134 131.633 27.72 131.633 26.748C131.633 25.794 132.407 25.182 133.613 25.182C135.017 25.182 135.809 25.938 136.259 26.946L138.005 25.938C137.213 24.264 135.683 23.166 133.613 23.166C131.489 23.166 129.563 24.48 129.563 26.802C129.563 29.178 131.471 29.898 133.433 30.492C135.305 31.068 136.295 31.446 136.295 32.562C136.295 33.48 135.593 34.218 133.955 34.218C132.245 34.218 131.273 33.372 130.823 32.094L129.041 33.138C129.707 35.01 131.417 36.234 133.901 36.234ZM144.774 26.766C143.55 26.766 142.578 27.216 141.984 28.152V23.4H140.04V36H141.984V31.176C141.984 29.34 142.992 28.584 144.27 28.584C145.494 28.584 146.286 29.304 146.286 30.672V36H148.23V30.474C148.23 28.134 146.79 26.766 144.774 26.766ZM151.295 25.65C151.979 25.65 152.537 25.074 152.537 24.408C152.537 23.724 151.979 23.166 151.295 23.166C150.611 23.166 150.053 23.724 150.053 24.408C150.053 25.074 150.611 25.65 151.295 25.65ZM150.323 36H152.267V27H150.323V36ZM159.619 26.766C158.215 26.766 157.153 27.342 156.469 28.296V27H154.525V39.6H156.469V34.722C157.153 35.658 158.215 36.234 159.619 36.234C162.067 36.234 164.101 34.182 164.101 31.5C164.101 28.836 162.067 26.766 159.619 26.766ZM159.313 34.38C157.693 34.38 156.469 33.174 156.469 31.5C156.469 29.826 157.693 28.62 159.313 28.62C160.933 28.62 162.157 29.826 162.157 31.5C162.157 33.174 160.933 34.38 159.313 34.38ZM170.957 26.766C169.553 26.766 168.491 27.342 167.807 28.296V27H165.863V39.6H167.807V34.722C168.491 35.658 169.553 36.234 170.957 36.234C173.405 36.234 175.439 34.182 175.439 31.5C175.439 28.836 173.405 26.766 170.957 26.766ZM170.651 34.38C169.031 34.38 167.807 33.174 167.807 31.5C167.807 29.826 169.031 28.62 170.651 28.62C172.271 28.62 173.495 29.826 173.495 31.5C173.495 33.174 172.271 34.38 170.651 34.38ZM178.172 25.65C178.856 25.65 179.414 25.074 179.414 24.408C179.414 23.724 178.856 23.166 178.172 23.166C177.488 23.166 176.93 23.724 176.93 24.408C176.93 25.074 177.488 25.65 178.172 25.65ZM177.2 36H179.144V27H177.2V36ZM186.136 26.766C184.912 26.766 183.94 27.216 183.346 28.152V27H181.402V36H183.346V31.176C183.346 29.34 184.354 28.584 185.632 28.584C186.856 28.584 187.648 29.304 187.648 30.672V36H189.592V30.474C189.592 28.134 188.152 26.766 186.136 26.766ZM198.849 27V28.332C198.165 27.36 197.103 26.766 195.717 26.766C193.179 26.766 191.181 28.836 191.181 31.41C191.181 33.984 193.179 36.054 195.717 36.054C197.103 36.054 198.165 35.46 198.849 34.488V35.586C198.849 37.152 197.841 38.07 196.167 38.07C194.601 38.07 193.935 37.458 193.539 36.684L191.865 37.656C192.621 39.096 194.151 39.834 196.131 39.834C198.489 39.834 200.757 38.484 200.757 35.586V27H198.849ZM195.987 34.236C194.349 34.236 193.125 33.03 193.125 31.41C193.125 29.79 194.349 28.584 195.987 28.584C197.625 28.584 198.849 29.79 198.849 31.41C198.849 33.03 197.625 34.236 195.987 34.236Z" fill="#3A3A3A"/>
<path d="M94.4 62.208C97.648 62.208 100.208 59.616 100.208 56.4C100.208 53.168 97.648 50.592 94.4 50.592C91.152 50.592 88.608 53.168 88.608 56.4C88.608 59.616 91.152 62.208 94.4 62.208ZM94.4 60.752C91.952 60.752 90.08 58.848 90.08 56.4C90.08 53.936 91.952 52.032 94.4 52.032C96.848 52.032 98.72 53.936 98.72 56.4C98.72 58.848 96.848 60.752 94.4 60.752ZM103.245 55.344V54H101.853V62H103.245V57.76C103.245 55.872 104.541 55.264 105.741 55.312V53.856C104.733 53.856 103.757 54.224 103.245 55.344ZM113.289 50.8V55.376C112.649 54.4 111.625 53.792 110.265 53.792C108.041 53.792 106.217 55.632 106.217 58C106.217 60.368 108.041 62.208 110.265 62.208C111.625 62.208 112.649 61.6 113.289 60.624V62H114.681V50.8H113.289ZM110.441 60.864C108.841 60.864 107.609 59.632 107.609 58C107.609 56.368 108.841 55.136 110.441 55.136C112.057 55.136 113.289 56.368 113.289 58C113.289 59.632 112.057 60.864 110.441 60.864ZM117.766 58.64H124.47C124.502 58.432 124.518 58.224 124.518 58.016C124.518 55.776 122.95 53.792 120.534 53.792C118.038 53.792 116.342 55.632 116.342 58C116.342 60.4 118.054 62.208 120.63 62.208C122.23 62.208 123.446 61.488 124.15 60.4L122.966 59.728C122.566 60.384 121.766 60.896 120.662 60.896C119.174 60.896 118.038 60.08 117.766 58.64ZM120.534 55.104C121.734 55.104 122.87 55.84 123.11 57.424H117.766C117.99 56.032 119.03 55.104 120.534 55.104ZM127.511 55.344V54H126.118V62H127.511V57.76C127.511 55.872 128.807 55.264 130.007 55.312V53.856C128.999 53.856 128.023 54.224 127.511 55.344ZM139.129 62.208C141.465 62.208 143.352 60.368 143.352 58C143.352 55.632 141.465 53.792 139.129 53.792C136.793 53.792 134.921 55.632 134.921 58C134.921 60.368 136.793 62.208 139.129 62.208ZM139.129 60.848C137.545 60.848 136.312 59.616 136.312 58C136.312 56.384 137.545 55.152 139.129 55.152C140.729 55.152 141.961 56.384 141.961 58C141.961 59.616 140.729 60.848 139.129 60.848ZM150.281 54L147.769 60.512L145.257 54H143.753L146.953 62H148.585L151.785 54H150.281ZM153.626 58.64H160.33C160.362 58.432 160.378 58.224 160.378 58.016C160.378 55.776 158.81 53.792 156.394 53.792C153.898 53.792 152.202 55.632 152.202 58C152.202 60.4 153.914 62.208 156.49 62.208C158.09 62.208 159.306 61.488 160.01 60.4L158.826 59.728C158.426 60.384 157.626 60.896 156.522 60.896C155.034 60.896 153.898 60.08 153.626 58.64ZM156.394 55.104C157.594 55.104 158.73 55.84 158.97 57.424H153.626C153.85 56.032 154.89 55.104 156.394 55.104ZM163.37 55.344V54H161.978V62H163.37V57.76C163.37 55.872 164.666 55.264 165.866 55.312V53.856C164.858 53.856 163.882 54.224 163.37 55.344ZM173.34 50.8L170.396 51.824L170.764 53.104L173.148 52.4V62H174.62V50.8H173.34ZM180.195 55.168H178.563L178.755 52.192H183.539V50.8H177.411L176.995 56.608H180.163C181.491 56.608 182.499 57.344 182.499 58.688C182.499 60.016 181.491 60.752 180.131 60.752C178.915 60.752 178.003 60.192 177.699 59.088L176.435 59.808C176.979 61.408 178.483 62.208 180.131 62.208C182.147 62.208 183.971 60.96 183.971 58.688C183.971 56.4 182.195 55.168 180.195 55.168ZM189.462 62.208C192.246 62.208 193.782 59.856 193.782 56.4C193.782 52.944 192.246 50.592 189.462 50.592C186.694 50.592 185.142 52.944 185.142 56.4C185.142 59.856 186.694 62.208 189.462 62.208ZM189.462 60.752C187.654 60.752 186.63 59.184 186.63 56.4C186.63 53.616 187.654 52.032 189.462 52.032C191.27 52.032 192.31 53.616 192.31 56.4C192.31 59.184 191.27 60.752 189.462 60.752ZM206.74 59.008C206.74 56.976 205.204 56.336 203.636 55.76V52.08C204.388 52.224 204.948 52.672 205.268 53.472L206.516 52.768C205.956 51.488 204.884 50.784 203.636 50.624V49.2H202.628V50.608C200.98 50.768 199.604 51.872 199.604 53.664C199.604 55.648 201.044 56.288 202.628 56.864V60.736C201.444 60.608 200.692 60.016 200.34 59.056L199.06 59.792C199.604 61.2 200.884 62.064 202.628 62.192V63.6H203.636V62.176C205.428 61.968 206.74 60.784 206.74 59.008ZM201.076 53.664C201.076 52.784 201.7 52.192 202.628 52.064V55.376C201.604 54.944 201.076 54.512 201.076 53.664ZM203.636 60.704V57.232C204.628 57.648 205.252 58.08 205.252 59.024C205.252 59.888 204.676 60.544 203.636 60.704Z" fill="#898989"/>
<defs>
<clipPath id="clip0_18_409">
<rect width="40" height="40" fill="white" transform="translate(24 23)"/>
</clipPath>
</defs>
</svg>
