<svg width="280" height="85" viewBox="0 0 280 85" fill="none" xmlns="http://www.w3.org/2000/svg">
<path d="M54.903 24.3438C54.0495 24.3438 53.2494 24.5741 52.5593 24.9744V23.1719C52.5593 22.5247 52.0346 22 51.3874 22H32.6374C31.9902 22 31.4655 22.5247 31.4655 23.1719V24.9887C30.7699 24.5795 29.9606 24.3438 29.097 24.3438C26.5123 24.3438 24.4095 26.4466 24.4095 29.0312C24.4095 31.0027 24.9937 32.9077 26.0989 34.5402C27.9805 37.3193 30.3007 38.0405 32.2206 38.8084C33.3277 41.5653 35.5663 43.7502 38.3589 44.7846L37.4948 50.2812H37.3249C35.3864 50.2812 33.8093 51.8584 33.8093 53.7969V59.6562H32.6374C31.9902 59.6562 31.4655 60.1809 31.4655 60.8281C31.4655 61.4753 31.9902 62 32.6374 62H51.3874C52.0346 62 52.5593 61.4753 52.5593 60.8281C52.5593 60.1809 52.0346 59.6562 51.3874 59.6562H50.2155V53.7969C50.2155 51.8584 48.6384 50.2812 46.6999 50.2812H46.5301L45.666 44.7847C48.4627 43.7487 50.7038 41.5591 51.8092 38.7966C53.6229 38.0711 56.0003 37.3478 57.9012 34.5402C59.0064 32.9077 59.5906 31.0027 59.5906 29.0312C59.5905 26.4466 57.4877 24.3438 54.903 24.3438ZM31.4568 35.9787C28.5995 34.8357 26.7532 32.1087 26.7532 29.0312C26.7532 27.7389 27.8046 26.6875 29.097 26.6875C30.3893 26.6875 31.4407 27.7389 31.4407 29.0312C31.4407 29.1137 31.4494 29.194 31.4655 29.2716V34.8906C31.4655 35.2673 31.4858 35.6392 31.5245 36.0058L31.4568 35.9787ZM47.8718 59.6562H36.153V57.3125H47.8718V59.6562ZM46.6999 52.625C47.3461 52.625 47.8718 53.1507 47.8718 53.7969V54.9688H36.153V53.7969C36.153 53.1507 36.6788 52.625 37.3249 52.625C37.9607 52.625 45.2089 52.625 46.6999 52.625ZM39.8673 50.2812L40.6427 45.3487C41.0912 45.4071 41.5483 45.4375 42.0124 45.4375C42.4766 45.4375 42.9337 45.407 43.3821 45.3487L44.1576 50.2812H39.8673ZM50.2155 34.8906C50.2155 39.4138 46.5356 43.0938 42.0124 43.0938C37.4892 43.0938 33.8093 39.4138 33.8093 34.8906V29.0312H50.2155V34.8906ZM50.2155 26.6875H33.8093V24.3438H50.2155V26.6875ZM52.5431 35.9787L52.5015 35.9953C52.5395 35.6322 52.5592 35.2637 52.5592 34.8906V29.0312C52.5593 27.7389 53.6107 26.6875 54.903 26.6875C56.1954 26.6875 57.2468 27.7389 57.2468 29.0312C57.2468 32.1087 55.4005 34.8358 52.5431 35.9787Z" fill="#3A3A3A"/>
<path d="M94.73 23.4V28.566H89.33V23.4H87.26V36H89.33V30.546H94.73V36H96.8V23.4H94.73ZM100.165 25.65C100.849 25.65 101.407 25.074 101.407 24.408C101.407 23.724 100.849 23.166 100.165 23.166C99.4806 23.166 98.9226 23.724 98.9226 24.408C98.9226 25.074 99.4806 25.65 100.165 25.65ZM99.1926 36H101.137V27H99.1926V36ZM110.558 27V28.332C109.874 27.36 108.812 26.766 107.426 26.766C104.888 26.766 102.89 28.836 102.89 31.41C102.89 33.984 104.888 36.054 107.426 36.054C108.812 36.054 109.874 35.46 110.558 34.488V35.586C110.558 37.152 109.55 38.07 107.876 38.07C106.31 38.07 105.644 37.458 105.248 36.684L103.574 37.656C104.33 39.096 105.86 39.834 107.84 39.834C110.198 39.834 112.466 38.484 112.466 35.586V27H110.558ZM107.696 34.236C106.058 34.236 104.834 33.03 104.834 31.41C104.834 29.79 106.058 28.584 107.696 28.584C109.334 28.584 110.558 29.79 110.558 31.41C110.558 33.03 109.334 34.236 107.696 34.236ZM119.466 26.766C118.242 26.766 117.27 27.216 116.676 28.152V23.4H114.732V36H116.676V31.176C116.676 29.34 117.684 28.584 118.962 28.584C120.186 28.584 120.978 29.304 120.978 30.672V36H122.922V30.474C122.922 28.134 121.482 26.766 119.466 26.766ZM142.079 29.7C142.079 26.046 139.163 23.166 135.545 23.166C131.945 23.166 129.011 26.046 129.011 29.7C129.011 33.354 131.945 36.234 135.545 36.234C136.769 36.234 137.921 35.892 138.911 35.316L140.297 36.738L141.755 35.424L140.423 34.056C141.449 32.922 142.079 31.392 142.079 29.7ZM135.545 34.218C133.061 34.218 131.081 32.292 131.081 29.7C131.081 27.108 133.061 25.182 135.545 25.182C138.029 25.182 140.009 27.108 140.009 29.7C140.009 30.834 139.631 31.824 139.001 32.598L136.589 30.132L135.131 31.446L137.435 33.804C136.859 34.074 136.229 34.218 135.545 34.218ZM150.1 27V31.824C150.1 33.66 149.092 34.416 147.814 34.416C146.59 34.416 145.798 33.696 145.798 32.328V27H143.854V32.526C143.854 34.866 145.294 36.234 147.31 36.234C148.534 36.234 149.506 35.784 150.1 34.848V36H152.044V27H150.1ZM161.446 27V28.278C160.762 27.342 159.7 26.766 158.296 26.766C155.848 26.766 153.814 28.818 153.814 31.5C153.814 34.164 155.848 36.234 158.296 36.234C159.7 36.234 160.762 35.658 161.446 34.704V36H163.39V27H161.446ZM158.602 34.38C156.982 34.38 155.758 33.174 155.758 31.5C155.758 29.826 156.982 28.62 158.602 28.62C160.222 28.62 161.446 29.826 161.446 31.5C161.446 33.174 160.222 34.38 158.602 34.38ZM165.655 36H167.599V22.86H165.655V36ZM170.829 25.65C171.513 25.65 172.071 25.074 172.071 24.408C172.071 23.724 171.513 23.166 170.829 23.166C170.145 23.166 169.587 23.724 169.587 24.408C169.587 25.074 170.145 25.65 170.829 25.65ZM169.857 36H171.801V27H169.857V36ZM179.08 28.872V27H176.848V24.48L174.904 25.056V27H173.248V28.872H174.904V33.192C174.904 35.532 176.092 36.36 179.08 36V34.254C177.604 34.326 176.848 34.344 176.848 33.192V28.872H179.08ZM187.085 27L184.781 33.534L182.099 27H179.975L183.791 35.838L183.701 36.018C183.251 37.206 182.567 37.854 181.307 37.782V39.6C183.377 39.726 184.853 38.574 185.699 36.288L189.155 27H187.085Z" fill="#3A3A3A"/>
<path d="M90.816 62.208C92.384 62.208 93.744 61.376 94.416 60.128L93.232 59.44C92.784 60.272 91.904 60.832 90.816 60.832C89.216 60.832 88 59.6 88 58C88 56.384 89.216 55.152 90.816 55.152C91.888 55.152 92.784 55.712 93.184 56.56L94.352 55.888C93.744 54.624 92.4 53.792 90.816 53.792C88.4 53.792 86.608 55.632 86.608 58C86.608 60.368 88.4 62.208 90.816 62.208ZM97.198 55.344V54H95.806V62H97.198V57.76C97.198 55.872 98.494 55.264 99.694 55.312V53.856C98.686 53.856 97.71 54.224 97.198 55.344ZM107.243 54V55.376C106.603 54.4 105.579 53.792 104.219 53.792C101.995 53.792 100.171 55.632 100.171 58C100.171 60.368 101.995 62.208 104.219 62.208C105.579 62.208 106.603 61.6 107.243 60.624V62H108.635V54H107.243ZM104.395 60.864C102.795 60.864 101.562 59.632 101.562 58C101.562 56.368 102.795 55.136 104.395 55.136C106.011 55.136 107.243 56.368 107.243 58C107.243 59.632 106.011 60.864 104.395 60.864ZM114.856 51.936V50.592C112.568 50.432 111.352 51.632 111.352 53.76V54H110.072V55.344H111.352V62H112.744V55.344H114.856V54H112.744V53.76C112.744 52.368 113.464 51.824 114.856 51.936ZM120.564 55.344V54H118.436V51.76L117.044 52.176V54H115.46V55.344H117.044V59.68C117.044 61.68 118.164 62.32 120.564 62V60.752C119.14 60.816 118.436 60.896 118.436 59.68V55.344H120.564ZM122.782 58.64H129.486C129.518 58.432 129.534 58.224 129.534 58.016C129.534 55.776 127.966 53.792 125.55 53.792C123.054 53.792 121.358 55.632 121.358 58C121.358 60.4 123.07 62.208 125.646 62.208C127.246 62.208 128.462 61.488 129.166 60.4L127.982 59.728C127.582 60.384 126.782 60.896 125.678 60.896C124.19 60.896 123.054 60.08 122.782 58.64ZM125.55 55.104C126.75 55.104 127.886 55.84 128.126 57.424H122.782C123.006 56.032 124.046 55.104 125.55 55.104ZM137.743 50.8V55.376C137.103 54.4 136.079 53.792 134.719 53.792C132.495 53.792 130.671 55.632 130.671 58C130.671 60.368 132.495 62.208 134.719 62.208C136.079 62.208 137.103 61.6 137.743 60.624V62H139.135V50.8H137.743ZM134.895 60.864C133.295 60.864 132.062 59.632 132.062 58C132.062 56.368 133.295 55.136 134.895 55.136C136.511 55.136 137.743 56.368 137.743 58C137.743 59.632 136.511 60.864 134.895 60.864ZM149.356 51.936V50.592C147.068 50.432 145.852 51.632 145.852 53.76V54H144.572V55.344H145.852V62H147.244V55.344H149.356V54H147.244V53.76C147.244 52.368 147.964 51.824 149.356 51.936ZM151.807 55.344V54H150.415V62H151.807V57.76C151.807 55.872 153.103 55.264 154.303 55.312V53.856C153.295 53.856 152.319 54.224 151.807 55.344ZM158.988 62.208C161.324 62.208 163.212 60.368 163.212 58C163.212 55.632 161.324 53.792 158.988 53.792C156.652 53.792 154.78 55.632 154.78 58C154.78 60.368 156.652 62.208 158.988 62.208ZM158.988 60.848C157.404 60.848 156.172 59.616 156.172 58C156.172 56.384 157.404 55.152 158.988 55.152C160.588 55.152 161.82 56.384 161.82 58C161.82 59.616 160.588 60.848 158.988 60.848ZM173.493 53.792C172.453 53.792 171.541 54.24 170.981 55.152C170.517 54.288 169.717 53.792 168.629 53.792C167.653 53.792 166.821 54.176 166.245 55.072V54H164.853V62H166.245V57.552C166.245 55.824 167.221 55.12 168.293 55.12C169.333 55.12 169.989 55.808 169.989 57.072V62H171.381V57.552C171.381 55.824 172.229 55.12 173.349 55.12C174.405 55.12 175.109 55.808 175.109 57.072V62H176.501V57.024C176.501 55.024 175.269 53.792 173.493 53.792ZM186.783 55.344V54H184.655V51.76L183.263 52.176V54H181.679V55.344H183.263V59.68C183.263 61.68 184.383 62.32 186.783 62V60.752C185.359 60.816 184.655 60.896 184.655 59.68V55.344H186.783ZM191.785 62.208C194.121 62.208 196.009 60.368 196.009 58C196.009 55.632 194.121 53.792 191.785 53.792C189.449 53.792 187.577 55.632 187.577 58C187.577 60.368 189.449 62.208 191.785 62.208ZM191.785 60.848C190.201 60.848 188.969 59.616 188.969 58C188.969 56.384 190.201 55.152 191.785 55.152C193.385 55.152 194.617 56.384 194.617 58C194.617 59.616 193.385 60.848 191.785 60.848ZM202.066 53.792C200.706 53.792 199.682 54.4 199.042 55.376V54H197.65V65.2H199.042V60.624C199.682 61.6 200.706 62.208 202.066 62.208C204.29 62.208 206.114 60.368 206.114 58C206.114 55.632 204.29 53.792 202.066 53.792ZM201.89 60.864C200.274 60.864 199.042 59.632 199.042 58C199.042 56.368 200.274 55.136 201.89 55.136C203.49 55.136 204.722 56.368 204.722 58C204.722 59.632 203.49 60.864 201.89 60.864ZM220.415 53.792C219.375 53.792 218.463 54.24 217.903 55.152C217.439 54.288 216.639 53.792 215.551 53.792C214.575 53.792 213.743 54.176 213.167 55.072V54H211.775V62H213.167V57.552C213.167 55.824 214.143 55.12 215.215 55.12C216.255 55.12 216.911 55.808 216.911 57.072V62H218.303V57.552C218.303 55.824 219.151 55.12 220.271 55.12C221.327 55.12 222.031 55.808 222.031 57.072V62H223.423V57.024C223.423 55.024 222.191 53.792 220.415 53.792ZM231.977 54V55.376C231.337 54.4 230.313 53.792 228.953 53.792C226.729 53.792 224.905 55.632 224.905 58C224.905 60.368 226.729 62.208 228.953 62.208C230.313 62.208 231.337 61.6 231.977 60.624V62H233.369V54H231.977ZM229.129 60.864C227.529 60.864 226.297 59.632 226.297 58C226.297 56.368 227.529 55.136 229.129 55.136C230.745 55.136 231.977 56.368 231.977 58C231.977 59.632 230.745 60.864 229.129 60.864ZM239.83 55.344V54H237.702V51.76L236.31 52.176V54H234.726V55.344H236.31V59.68C236.31 61.68 237.43 62.32 239.83 62V60.752C238.406 60.816 237.702 60.896 237.702 59.68V55.344H239.83ZM242.048 58.64H248.752C248.784 58.432 248.8 58.224 248.8 58.016C248.8 55.776 247.232 53.792 244.816 53.792C242.32 53.792 240.624 55.632 240.624 58C240.624 60.4 242.336 62.208 244.912 62.208C246.512 62.208 247.728 61.488 248.432 60.4L247.248 59.728C246.848 60.384 246.048 60.896 244.944 60.896C243.456 60.896 242.32 60.08 242.048 58.64ZM244.816 55.104C246.016 55.104 247.152 55.84 247.392 57.424H242.048C242.272 56.032 243.312 55.104 244.816 55.104ZM251.792 55.344V54H250.4V62H251.792V57.76C251.792 55.872 253.088 55.264 254.288 55.312V53.856C253.28 53.856 252.304 54.224 251.792 55.344ZM256.354 52.544C256.866 52.544 257.282 52.128 257.282 51.616C257.282 51.104 256.866 50.672 256.354 50.672C255.826 50.672 255.41 51.104 255.41 51.616C255.41 52.128 255.826 52.544 256.354 52.544ZM255.65 62H257.042V54H255.65V62ZM265.789 54V55.376C265.149 54.4 264.125 53.792 262.765 53.792C260.541 53.792 258.717 55.632 258.717 58C258.717 60.368 260.541 62.208 262.765 62.208C264.125 62.208 265.149 61.6 265.789 60.624V62H267.181V54H265.789ZM262.941 60.864C261.341 60.864 260.109 59.632 260.109 58C260.109 56.368 261.341 55.136 262.941 55.136C264.557 55.136 265.789 56.368 265.789 58C265.789 59.632 264.557 60.864 262.941 60.864ZM269.29 62H270.682V50.32H269.29V62ZM273.99 56.16C273.99 55.44 274.694 55.088 275.414 55.088C276.118 55.088 276.822 55.392 277.126 56.112L278.294 55.456C277.782 54.416 276.726 53.792 275.414 53.792C273.798 53.792 272.582 54.768 272.582 56.176C272.582 59.072 277.062 58.096 277.062 59.808C277.062 60.592 276.326 60.896 275.478 60.896C274.486 60.896 273.75 60.416 273.494 59.648L272.294 60.336C272.758 61.44 273.878 62.208 275.478 62.208C277.19 62.208 278.47 61.296 278.47 59.808C278.47 56.864 273.99 57.872 273.99 56.16Z" fill="#898989"/>
</svg>
