<svg width="494" height="553" viewBox="0 0 494 553" fill="none" xmlns="http://www.w3.org/2000/svg">
<g filter="url(#filter0_b_40_765)">
<rect width="494" height="553" fill="white" fill-opacity="0.72"/>
</g>
<path d="M85.928 73.8V89.368H71.368V73.8H63.64V113H71.368V96.76H85.928V113H93.6V73.8H85.928ZM104.13 81.64C106.594 81.64 108.61 79.624 108.61 77.216C108.61 74.808 106.594 72.736 104.13 72.736C101.722 72.736 99.7062 74.808 99.7062 77.216C99.7062 79.624 101.722 81.64 104.13 81.64ZM100.546 113H107.77V85H100.546V113ZM135.83 85V88.472C133.87 85.84 130.846 84.216 126.87 84.216C118.918 84.216 112.926 90.712 112.926 98.552C112.926 106.448 118.918 112.888 126.87 112.888C130.846 112.888 133.87 111.264 135.83 108.632V111.656C135.83 116.08 133.03 118.544 128.494 118.544C124.182 118.544 122.334 116.808 121.158 114.624L114.998 118.152C117.462 122.688 122.278 124.984 128.27 124.984C135.662 124.984 142.886 120.84 142.886 111.656V85H135.83ZM127.99 106.224C123.454 106.224 120.15 103.032 120.15 98.552C120.15 94.128 123.454 90.936 127.99 90.936C132.526 90.936 135.83 94.128 135.83 98.552C135.83 103.032 132.526 106.224 127.99 106.224ZM165.005 84.216C161.253 84.216 158.341 85.616 156.661 88.136V73.8H149.437V113H156.661V97.88C156.661 93.008 159.293 90.936 162.821 90.936C166.069 90.936 168.365 92.896 168.365 96.704V113H175.589V95.808C175.589 88.36 170.941 84.216 165.005 84.216ZM182.093 99.56H203.093V92.616H182.093V99.56ZM249.287 93.4C249.287 81.92 240.159 73.016 228.903 73.016C217.647 73.016 208.575 81.92 208.575 93.4C208.575 104.824 217.647 113.784 228.903 113.784C232.487 113.784 235.847 112.888 238.759 111.264L243.015 115.688L248.503 110.816L244.471 106.616C247.495 103.088 249.287 98.496 249.287 93.4ZM228.903 106.224C221.847 106.224 216.247 100.904 216.247 93.4C216.247 85.84 221.847 80.52 228.903 80.52C235.959 80.52 241.559 85.84 241.559 93.4C241.559 96.368 240.663 99 239.207 101.072L232.319 93.904L226.831 98.776L233.271 105.496C231.927 105.944 230.415 106.224 228.903 106.224ZM273.409 85V100.12C273.409 104.992 270.777 107.064 267.249 107.064C264.001 107.064 261.705 105.104 261.705 101.296V85H254.481V102.192C254.481 109.64 259.129 113.784 265.065 113.784C268.817 113.784 271.729 112.384 273.409 109.864V113H280.633V85H273.409ZM308.529 85V88.304C306.513 85.784 303.489 84.216 299.401 84.216C291.953 84.216 285.793 90.656 285.793 99C285.793 107.344 291.953 113.784 299.401 113.784C303.489 113.784 306.513 112.216 308.529 109.696V113H315.753V85H308.529ZM300.745 106.896C296.321 106.896 293.017 103.704 293.017 99C293.017 94.296 296.321 91.104 300.745 91.104C305.225 91.104 308.529 94.296 308.529 99C308.529 103.704 305.225 106.896 300.745 106.896ZM322.304 113H329.528V72.12H322.304V113ZM339.724 81.64C342.188 81.64 344.204 79.624 344.204 77.216C344.204 74.808 342.188 72.736 339.724 72.736C337.316 72.736 335.3 74.808 335.3 77.216C335.3 79.624 337.316 81.64 339.724 81.64ZM336.14 113H343.364V85H336.14V113ZM365.992 91.944V85H359.664V77.16L352.44 79.344V85H347.568V91.944H352.44V103.592C352.44 111.152 355.856 114.12 365.992 113V106.448C361.848 106.672 359.664 106.616 359.664 103.592V91.944H365.992ZM389.943 85L383.727 103.816L376.447 85H368.551L380.031 112.104C378.687 115.856 376.671 117.536 372.695 117.48V124.2C379.807 124.592 384.567 121.064 387.479 113L397.671 85H389.943ZM87.048 148.192V140.8H63.64V180H71.368V164.88H86.6V157.488H71.368V148.192H87.048ZM110.823 152V167.12C110.823 171.992 108.191 174.064 104.663 174.064C101.415 174.064 99.1191 172.104 99.1191 168.296V152H91.8951V169.192C91.8951 176.64 96.5431 180.784 102.479 180.784C106.231 180.784 109.143 179.384 110.823 176.864V180H118.047V152H110.823ZM131.887 156.816V152H124.663V180H131.887V166.616C131.887 160.736 136.647 159.056 140.399 159.504V151.44C136.871 151.44 133.343 153.008 131.887 156.816ZM160.192 151.216C156.44 151.216 153.528 152.616 151.848 155.136V152H144.624V180H151.848V164.88C151.848 160.008 154.48 157.936 158.008 157.936C161.256 157.936 163.552 159.896 163.552 163.704V180H170.776V162.808C170.776 155.36 166.128 151.216 160.192 151.216ZM180.529 148.64C182.993 148.64 185.009 146.624 185.009 144.216C185.009 141.808 182.993 139.736 180.529 139.736C178.121 139.736 176.105 141.808 176.105 144.216C176.105 146.624 178.121 148.64 180.529 148.64ZM176.945 180H184.169V152H176.945V180ZM206.797 158.944V152H200.469V144.16L193.245 146.344V152H188.373V158.944H193.245V170.592C193.245 178.152 196.661 181.12 206.797 180V173.448C202.653 173.672 200.469 173.616 200.469 170.592V158.944H206.797ZM230.807 152V167.12C230.807 171.992 228.175 174.064 224.647 174.064C221.399 174.064 219.103 172.104 219.103 168.296V152H211.879V169.192C211.879 176.64 216.527 180.784 222.463 180.784C226.215 180.784 229.127 179.384 230.807 176.864V180H238.031V152H230.807ZM251.872 156.816V152H244.648V180H251.872V166.616C251.872 160.736 256.632 159.056 260.384 159.504V151.44C256.856 151.44 253.328 153.008 251.872 156.816ZM269.674 168.968H290.786C290.954 168.016 291.066 167.064 291.066 166C291.066 157.768 285.186 151.216 276.898 151.216C268.106 151.216 262.114 157.656 262.114 166C262.114 174.344 268.05 180.784 277.458 180.784C282.834 180.784 287.034 178.6 289.666 174.792L283.842 171.432C282.61 173.056 280.37 174.232 277.57 174.232C273.762 174.232 270.682 172.664 269.674 168.968ZM269.562 163.368C270.402 159.784 273.034 157.712 276.898 157.712C279.922 157.712 282.946 159.336 283.842 163.368H269.562ZM321.589 180.784C329.317 180.784 335.365 176.248 335.365 167.792V140.8H327.693V167.792C327.693 170.984 325.845 173.224 321.589 173.224C318.341 173.224 316.549 171.992 315.317 169.528L308.653 173.336C311.061 178.208 315.597 180.784 321.589 180.784ZM360.472 152V167.12C360.472 171.992 357.84 174.064 354.312 174.064C351.064 174.064 348.768 172.104 348.768 168.296V152H341.544V169.192C341.544 176.64 346.192 180.784 352.128 180.784C355.88 180.784 358.792 179.384 360.472 176.864V180H367.696V152H360.472ZM380.757 159.952C380.757 158.44 382.213 157.656 384.005 157.656C386.077 157.656 387.645 158.72 388.485 160.512L394.645 157.152C392.461 153.288 388.541 151.216 384.005 151.216C378.237 151.216 373.365 154.408 373.365 160.12C373.365 169.976 387.813 167.736 387.813 171.824C387.813 173.448 386.245 174.232 383.949 174.232C381.149 174.232 379.245 172.888 378.461 170.592L372.189 174.12C374.205 178.432 378.349 180.784 383.949 180.784C389.941 180.784 395.205 177.872 395.205 171.824C395.205 161.52 380.757 164.096 380.757 159.952ZM415.047 158.944V152H408.719V144.16L401.495 146.344V152H396.623V158.944H401.495V170.592C401.495 178.152 404.911 181.12 415.047 180V173.448C410.903 173.672 408.719 173.616 408.719 170.592V158.944H415.047ZM87.048 215.192V207.8H63.64V247H71.368V231.88H86.6V224.488H71.368V215.192H87.048ZM105.671 247.784C113.903 247.784 120.511 241.344 120.511 233C120.511 224.656 113.903 218.216 105.671 218.216C97.4391 218.216 90.8871 224.656 90.8871 233C90.8871 241.344 97.4391 247.784 105.671 247.784ZM105.671 240.728C101.415 240.728 98.1111 237.536 98.1111 233C98.1111 228.464 101.415 225.272 105.671 225.272C109.983 225.272 113.287 228.464 113.287 233C113.287 237.536 109.983 240.728 105.671 240.728ZM132.817 223.816V219H125.593V247H132.817V233.616C132.817 227.736 137.577 226.056 141.329 226.504V218.44C137.801 218.44 134.273 220.008 132.817 223.816ZM190.914 207.8H182.178L173.666 224.152L165.154 207.8H156.418L169.802 231.712V247H177.474V231.712L190.914 207.8ZM202.085 247.784C210.317 247.784 216.925 241.344 216.925 233C216.925 224.656 210.317 218.216 202.085 218.216C193.853 218.216 187.301 224.656 187.301 233C187.301 241.344 193.853 247.784 202.085 247.784ZM202.085 240.728C197.829 240.728 194.525 237.536 194.525 233C194.525 228.464 197.829 225.272 202.085 225.272C206.397 225.272 209.701 228.464 209.701 233C209.701 237.536 206.397 240.728 202.085 240.728ZM240.487 219V234.12C240.487 238.992 237.855 241.064 234.327 241.064C231.079 241.064 228.783 239.104 228.783 235.296V219H221.559V236.192C221.559 243.64 226.207 247.784 232.143 247.784C235.895 247.784 238.807 246.384 240.487 243.864V247H247.711V219H240.487Z" fill="#3A3A3A"/>
<path d="M68 299.26C72.06 299.26 75.26 296.02 75.26 292C75.26 287.96 72.06 284.74 68 284.74C63.94 284.74 60.76 287.96 60.76 292C60.76 296.02 63.94 299.26 68 299.26ZM68 297.44C64.94 297.44 62.6 295.06 62.6 292C62.6 288.92 64.94 286.54 68 286.54C71.06 286.54 73.4 288.92 73.4 292C73.4 295.06 71.06 297.44 68 297.44ZM84.3138 289V294.3C84.3138 296.66 83.0138 297.6 81.4138 297.6C79.8738 297.6 78.9338 296.68 78.9338 295.04V289H77.1938V295.14C77.1938 297.7 78.7337 299.26 81.0738 299.26C82.4738 299.26 83.5738 298.74 84.3138 297.56V299H86.0538V289H84.3138ZM90.4428 290.68V289H88.7028V299H90.4428V293.7C90.4428 291.34 92.0628 290.58 93.5628 290.64V288.82C92.3028 288.82 91.0828 289.28 90.4428 290.68ZM105.405 286.42V284.74C102.545 284.54 101.025 286.04 101.025 288.7V289H99.4253V290.68H101.025V299H102.765V290.68H105.405V289H102.765V288.7C102.765 286.96 103.665 286.28 105.405 286.42ZM113.63 289V294.3C113.63 296.66 112.33 297.6 110.73 297.6C109.19 297.6 108.25 296.68 108.25 295.04V289H106.51V295.14C106.51 297.7 108.05 299.26 110.39 299.26C111.79 299.26 112.89 298.74 113.63 297.56V299H115.37V289H113.63ZM119.759 290.68V289H118.019V299H119.759V293.7C119.759 291.34 121.379 290.58 122.879 290.64V288.82C121.619 288.82 120.399 289.28 119.759 290.68ZM129.562 288.74C128.162 288.74 127.062 289.26 126.322 290.44V289H124.582V299H126.322V293.7C126.322 291.34 127.622 290.4 129.222 290.4C130.762 290.4 131.702 291.32 131.702 292.96V299H133.442V292.86C133.442 290.3 131.902 288.74 129.562 288.74ZM136.751 287.18C137.391 287.18 137.911 286.66 137.911 286.02C137.911 285.38 137.391 284.84 136.751 284.84C136.091 284.84 135.571 285.38 135.571 286.02C135.571 286.66 136.091 287.18 136.751 287.18ZM135.871 299H137.611V289H135.871V299ZM145.705 290.68V289H143.045V286.2L141.305 286.72V289H139.325V290.68H141.305V296.1C141.305 298.6 142.705 299.4 145.705 299V297.44C143.925 297.52 143.045 297.62 143.045 296.1V290.68H145.705ZM154.724 289V294.3C154.724 296.66 153.424 297.6 151.824 297.6C150.284 297.6 149.344 296.68 149.344 295.04V289H147.604V295.14C147.604 297.7 149.144 299.26 151.484 299.26C152.884 299.26 153.984 298.74 154.724 297.56V299H156.464V289H154.724ZM160.853 290.68V289H159.113V299H160.853V293.7C160.853 291.34 162.473 290.58 163.973 290.64V288.82C162.713 288.82 161.493 289.28 160.853 290.68ZM166.349 294.8H174.729C174.769 294.54 174.789 294.28 174.789 294.02C174.789 291.22 172.829 288.74 169.809 288.74C166.689 288.74 164.569 291.04 164.569 294C164.569 297 166.709 299.26 169.929 299.26C171.929 299.26 173.449 298.36 174.329 297L172.849 296.16C172.349 296.98 171.349 297.62 169.969 297.62C168.109 297.62 166.689 296.6 166.349 294.8ZM169.809 290.38C171.309 290.38 172.729 291.3 173.029 293.28H166.349C166.629 291.54 167.929 290.38 169.809 290.38ZM182.669 287.18C183.309 287.18 183.829 286.66 183.829 286.02C183.829 285.38 183.309 284.84 182.669 284.84C182.009 284.84 181.489 285.38 181.489 286.02C181.489 286.66 182.009 287.18 182.669 287.18ZM181.789 299H183.529V289H181.789V299ZM187.664 291.7C187.664 290.8 188.544 290.36 189.444 290.36C190.324 290.36 191.204 290.74 191.584 291.64L193.044 290.82C192.404 289.52 191.084 288.74 189.444 288.74C187.424 288.74 185.904 289.96 185.904 291.72C185.904 295.34 191.504 294.12 191.504 296.26C191.504 297.24 190.584 297.62 189.524 297.62C188.284 297.62 187.364 297.02 187.044 296.06L185.544 296.92C186.124 298.3 187.524 299.26 189.524 299.26C191.664 299.26 193.264 298.12 193.264 296.26C193.264 292.58 187.664 293.84 187.664 291.7ZM211.124 288.74C209.824 288.74 208.684 289.3 207.984 290.44C207.404 289.36 206.404 288.74 205.044 288.74C203.824 288.74 202.784 289.22 202.064 290.34V289H200.324V299H202.064V293.44C202.064 291.28 203.284 290.4 204.624 290.4C205.924 290.4 206.744 291.26 206.744 292.84V299H208.484V293.44C208.484 291.28 209.544 290.4 210.944 290.4C212.264 290.4 213.144 291.26 213.144 292.84V299H214.884V292.78C214.884 290.28 213.344 288.74 211.124 288.74ZM225.577 289V290.72C224.777 289.5 223.497 288.74 221.797 288.74C219.017 288.74 216.737 291.04 216.737 294C216.737 296.96 219.017 299.26 221.797 299.26C223.497 299.26 224.777 298.5 225.577 297.28V299H227.317V289H225.577ZM222.017 297.58C220.017 297.58 218.477 296.04 218.477 294C218.477 291.96 220.017 290.42 222.017 290.42C224.037 290.42 225.577 291.96 225.577 294C225.577 296.04 224.037 297.58 222.017 297.58ZM238.233 285V290.72C237.433 289.5 236.153 288.74 234.453 288.74C231.673 288.74 229.393 291.04 229.393 294C229.393 296.96 231.673 299.26 234.453 299.26C236.153 299.26 237.433 298.5 238.233 297.28V299H239.973V285H238.233ZM234.673 297.58C232.673 297.58 231.133 296.04 231.133 294C231.133 291.96 232.673 290.42 234.673 290.42C236.693 290.42 238.233 291.96 238.233 294C238.233 296.04 236.693 297.58 234.673 297.58ZM243.829 294.8H252.209C252.249 294.54 252.269 294.28 252.269 294.02C252.269 291.22 250.309 288.74 247.289 288.74C244.169 288.74 242.049 291.04 242.049 294C242.049 297 244.189 299.26 247.409 299.26C249.409 299.26 250.929 298.36 251.809 297L250.329 296.16C249.829 296.98 248.829 297.62 247.449 297.62C245.589 297.62 244.169 296.6 243.829 294.8ZM247.289 290.38C248.789 290.38 250.209 291.3 250.509 293.28H243.829C244.109 291.54 245.409 290.38 247.289 290.38ZM264.409 286.42V284.74C261.549 284.54 260.029 286.04 260.029 288.7V289H258.429V290.68H260.029V299H261.769V290.68H264.409V289H261.769V288.7C261.769 286.96 262.669 286.28 264.409 286.42ZM267.474 290.68V289H265.734V299H267.474V293.7C267.474 291.34 269.094 290.58 270.594 290.64V288.82C269.334 288.82 268.114 289.28 267.474 290.68ZM276.45 299.26C279.37 299.26 281.73 296.96 281.73 294C281.73 291.04 279.37 288.74 276.45 288.74C273.53 288.74 271.19 291.04 271.19 294C271.19 296.96 273.53 299.26 276.45 299.26ZM276.45 297.56C274.47 297.56 272.93 296.02 272.93 294C272.93 291.98 274.47 290.44 276.45 290.44C278.45 290.44 279.99 291.98 279.99 294C279.99 296.02 278.45 297.56 276.45 297.56ZM294.581 288.74C293.281 288.74 292.141 289.3 291.441 290.44C290.861 289.36 289.861 288.74 288.501 288.74C287.281 288.74 286.241 289.22 285.521 290.34V289H283.781V299H285.521V293.44C285.521 291.28 286.741 290.4 288.081 290.4C289.381 290.4 290.201 291.26 290.201 292.84V299H291.941V293.44C291.941 291.28 293.001 290.4 294.401 290.4C295.721 290.4 296.601 291.26 296.601 292.84V299H298.341V292.78C298.341 290.28 296.801 288.74 294.581 288.74ZM307.254 291.7C307.254 290.8 308.134 290.36 309.034 290.36C309.914 290.36 310.794 290.74 311.174 291.64L312.634 290.82C311.994 289.52 310.674 288.74 309.034 288.74C307.014 288.74 305.494 289.96 305.494 291.72C305.494 295.34 311.094 294.12 311.094 296.26C311.094 297.24 310.174 297.62 309.114 297.62C307.874 297.62 306.954 297.02 306.634 296.06L305.134 296.92C305.714 298.3 307.114 299.26 309.114 299.26C311.254 299.26 312.854 298.12 312.854 296.26C312.854 292.58 307.254 293.84 307.254 291.7ZM315.86 294.8H324.24C324.28 294.54 324.3 294.28 324.3 294.02C324.3 291.22 322.34 288.74 319.32 288.74C316.2 288.74 314.08 291.04 314.08 294C314.08 297 316.22 299.26 319.44 299.26C321.44 299.26 322.96 298.36 323.84 297L322.36 296.16C321.86 296.98 320.86 297.62 319.48 297.62C317.62 297.62 316.2 296.6 315.86 294.8ZM319.32 290.38C320.82 290.38 322.24 291.3 322.54 293.28H315.86C316.14 291.54 317.44 290.38 319.32 290.38ZM326.3 299H328.04V284.4H326.3V299ZM331.915 294.8H340.295C340.335 294.54 340.355 294.28 340.355 294.02C340.355 291.22 338.395 288.74 335.375 288.74C332.255 288.74 330.135 291.04 330.135 294C330.135 297 332.275 299.26 335.495 299.26C337.495 299.26 339.015 298.36 339.895 297L338.415 296.16C337.915 296.98 336.915 297.62 335.535 297.62C333.675 297.62 332.255 296.6 331.915 294.8ZM335.375 290.38C336.875 290.38 338.295 291.3 338.595 293.28H331.915C332.195 291.54 333.495 290.38 335.375 290.38ZM347.036 299.26C348.996 299.26 350.696 298.22 351.536 296.66L350.056 295.8C349.496 296.84 348.396 297.54 347.036 297.54C345.036 297.54 343.516 296 343.516 294C343.516 291.98 345.036 290.44 347.036 290.44C348.376 290.44 349.496 291.14 349.996 292.2L351.456 291.36C350.696 289.78 349.016 288.74 347.036 288.74C344.016 288.74 341.776 291.04 341.776 294C341.776 296.96 344.016 299.26 347.036 299.26ZM358.694 290.68V289H356.034V286.2L354.294 286.72V289H352.314V290.68H354.294V296.1C354.294 298.6 355.694 299.4 358.694 299V297.44C356.914 297.52 356.034 297.62 356.034 296.1V290.68H358.694ZM361.466 294.8H369.846C369.886 294.54 369.906 294.28 369.906 294.02C369.906 291.22 367.946 288.74 364.926 288.74C361.806 288.74 359.686 291.04 359.686 294C359.686 297 361.826 299.26 365.046 299.26C367.046 299.26 368.566 298.36 369.446 297L367.966 296.16C367.466 296.98 366.466 297.62 365.086 297.62C363.226 297.62 361.806 296.6 361.466 294.8ZM364.926 290.38C366.426 290.38 367.846 291.3 368.146 293.28H361.466C361.746 291.54 363.046 290.38 364.926 290.38ZM380.166 285V290.72C379.366 289.5 378.086 288.74 376.386 288.74C373.606 288.74 371.326 291.04 371.326 294C371.326 296.96 373.606 299.26 376.386 299.26C378.086 299.26 379.366 298.5 380.166 297.28V299H381.906V285H380.166ZM376.606 297.58C374.606 297.58 373.066 296.04 373.066 294C373.066 291.96 374.606 290.42 376.606 290.42C378.626 290.42 380.166 291.96 380.166 294C380.166 296.04 378.626 297.58 376.606 297.58ZM69.6 319V320.72C68.8 319.5 67.52 318.74 65.82 318.74C63.04 318.74 60.76 321.04 60.76 324C60.76 326.96 63.04 329.26 65.82 329.26C67.52 329.26 68.8 328.5 69.6 327.28V329H71.34V319H69.6ZM66.04 327.58C64.04 327.58 62.5 326.04 62.5 324C62.5 321.96 64.04 320.42 66.04 320.42C68.06 320.42 69.6 321.96 69.6 324C69.6 326.04 68.06 327.58 66.04 327.58ZM78.9563 318.74C77.5563 318.74 76.4563 319.26 75.7163 320.44V319H73.9762V329H75.7163V323.7C75.7163 321.34 77.0163 320.4 78.6163 320.4C80.1563 320.4 81.0963 321.32 81.0963 322.96V329H82.8363V322.86C82.8363 320.3 81.2963 318.74 78.9563 318.74ZM93.5453 315V320.72C92.7453 319.5 91.4653 318.74 89.7653 318.74C86.9853 318.74 84.7053 321.04 84.7053 324C84.7053 326.96 86.9853 329.26 89.7653 329.26C91.4653 329.26 92.7453 328.5 93.5453 327.28V329H95.2853V315H93.5453ZM89.9853 327.58C87.9853 327.58 86.4453 326.04 86.4453 324C86.4453 321.96 87.9853 320.42 89.9853 320.42C92.0053 320.42 93.5453 321.96 93.5453 324C93.5453 326.04 92.0053 327.58 89.9853 327.58ZM108.442 318.74C106.742 318.74 105.462 319.5 104.662 320.72V315H102.922V329H104.662V327.28C105.462 328.5 106.742 329.26 108.442 329.26C111.222 329.26 113.502 326.96 113.502 324C113.502 321.04 111.222 318.74 108.442 318.74ZM108.222 327.58C106.202 327.58 104.662 326.04 104.662 324C104.662 321.96 106.202 320.42 108.222 320.42C110.222 320.42 111.762 321.96 111.762 324C111.762 326.04 110.222 327.58 108.222 327.58ZM116.798 324.8H125.178C125.218 324.54 125.238 324.28 125.238 324.02C125.238 321.22 123.278 318.74 120.258 318.74C117.138 318.74 115.018 321.04 115.018 324C115.018 327 117.158 329.26 120.378 329.26C122.378 329.26 123.898 328.36 124.778 327L123.298 326.16C122.798 326.98 121.798 327.62 120.418 327.62C118.558 327.62 117.138 326.6 116.798 324.8ZM120.258 320.38C121.758 320.38 123.178 321.3 123.478 323.28H116.798C117.078 321.54 118.378 320.38 120.258 320.38ZM128.347 321.7C128.347 320.8 129.227 320.36 130.127 320.36C131.007 320.36 131.887 320.74 132.267 321.64L133.727 320.82C133.087 319.52 131.767 318.74 130.127 318.74C128.107 318.74 126.587 319.96 126.587 321.72C126.587 325.34 132.187 324.12 132.187 326.26C132.187 327.24 131.267 327.62 130.207 327.62C128.967 327.62 128.047 327.02 127.727 326.06L126.227 326.92C126.807 328.3 128.207 329.26 130.207 329.26C132.347 329.26 133.947 328.12 133.947 326.26C133.947 322.58 128.347 323.84 128.347 321.7ZM141.057 320.68V319H138.397V316.2L136.657 316.72V319H134.677V320.68H136.657V326.1C136.657 328.6 138.057 329.4 141.057 329V327.44C139.277 327.52 138.397 327.62 138.397 326.1V320.68H141.057ZM156.455 319V320.72C155.655 319.5 154.375 318.74 152.675 318.74C149.895 318.74 147.615 321.04 147.615 324C147.615 326.96 149.895 329.26 152.675 329.26C154.375 329.26 155.655 328.5 156.455 327.28V333H158.195V319H156.455ZM152.895 327.58C150.895 327.58 149.355 326.04 149.355 324C149.355 321.96 150.895 320.42 152.895 320.42C154.915 320.42 156.455 321.96 156.455 324C156.455 326.04 154.915 327.58 152.895 327.58ZM167.732 319V324.3C167.732 326.66 166.432 327.6 164.832 327.6C163.292 327.6 162.352 326.68 162.352 325.04V319H160.612V325.14C160.612 327.7 162.152 329.26 164.492 329.26C165.892 329.26 166.992 328.74 167.732 327.56V329H169.472V319H167.732ZM180.401 319V320.72C179.601 319.5 178.321 318.74 176.621 318.74C173.841 318.74 171.561 321.04 171.561 324C171.561 326.96 173.841 329.26 176.621 329.26C178.321 329.26 179.601 328.5 180.401 327.28V329H182.141V319H180.401ZM176.841 327.58C174.841 327.58 173.301 326.04 173.301 324C173.301 321.96 174.841 320.42 176.841 320.42C178.861 320.42 180.401 321.96 180.401 324C180.401 326.04 178.861 327.58 176.841 327.58ZM184.777 329H186.517V314.4H184.777V329ZM190.052 317.18C190.692 317.18 191.212 316.66 191.212 316.02C191.212 315.38 190.692 314.84 190.052 314.84C189.392 314.84 188.872 315.38 188.872 316.02C188.872 316.66 189.392 317.18 190.052 317.18ZM189.172 329H190.912V319H189.172V329ZM199.006 320.68V319H196.346V316.2L194.606 316.72V319H192.626V320.68H194.606V326.1C194.606 328.6 196.006 329.4 199.006 329V327.44C197.226 327.52 196.346 327.62 196.346 326.1V320.68H199.006ZM208.261 319L205.381 326.84L201.981 319H200.121L204.481 328.96L204.301 329.34C203.781 330.66 202.941 331.48 201.601 331.38V333C203.641 333.14 205.201 331.86 206.041 329.62L210.121 319H208.261ZM227.374 318.74C226.074 318.74 224.934 319.3 224.234 320.44C223.654 319.36 222.654 318.74 221.294 318.74C220.074 318.74 219.034 319.22 218.314 320.34V319H216.574V329H218.314V323.44C218.314 321.28 219.534 320.4 220.874 320.4C222.174 320.4 222.994 321.26 222.994 322.84V329H224.734V323.44C224.734 321.28 225.794 320.4 227.194 320.4C228.514 320.4 229.394 321.26 229.394 322.84V329H231.134V322.78C231.134 320.28 229.594 318.74 227.374 318.74ZM241.827 319V320.72C241.027 319.5 239.747 318.74 238.047 318.74C235.267 318.74 232.987 321.04 232.987 324C232.987 326.96 235.267 329.26 238.047 329.26C239.747 329.26 241.027 328.5 241.827 327.28V329H243.567V319H241.827ZM238.267 327.58C236.267 327.58 234.727 326.04 234.727 324C234.727 321.96 236.267 320.42 238.267 320.42C240.287 320.42 241.827 321.96 241.827 324C241.827 326.04 240.287 327.58 238.267 327.58ZM251.643 320.68V319H248.983V316.2L247.243 316.72V319H245.263V320.68H247.243V326.1C247.243 328.6 248.643 329.4 251.643 329V327.44C249.863 327.52 248.983 327.62 248.983 326.1V320.68H251.643ZM254.415 324.8H262.795C262.835 324.54 262.855 324.28 262.855 324.02C262.855 321.22 260.895 318.74 257.875 318.74C254.755 318.74 252.635 321.04 252.635 324C252.635 327 254.775 329.26 257.995 329.26C259.995 329.26 261.515 328.36 262.395 327L260.915 326.16C260.415 326.98 259.415 327.62 258.035 327.62C256.175 327.62 254.755 326.6 254.415 324.8ZM257.875 320.38C259.375 320.38 260.795 321.3 261.095 323.28H254.415C254.695 321.54 255.995 320.38 257.875 320.38ZM266.595 320.68V319H264.855V329H266.595V323.7C266.595 321.34 268.215 320.58 269.715 320.64V318.82C268.455 318.82 267.235 319.28 266.595 320.68ZM272.298 317.18C272.938 317.18 273.458 316.66 273.458 316.02C273.458 315.38 272.938 314.84 272.298 314.84C271.638 314.84 271.118 315.38 271.118 316.02C271.118 316.66 271.638 317.18 272.298 317.18ZM271.418 329H273.158V319H271.418V329ZM284.092 319V320.72C283.292 319.5 282.012 318.74 280.312 318.74C277.532 318.74 275.252 321.04 275.252 324C275.252 326.96 277.532 329.26 280.312 329.26C282.012 329.26 283.292 328.5 284.092 327.28V329H285.832V319H284.092ZM280.532 327.58C278.532 327.58 276.992 326.04 276.992 324C276.992 321.96 278.532 320.42 280.532 320.42C282.552 320.42 284.092 321.96 284.092 324C284.092 326.04 282.552 327.58 280.532 327.58ZM288.468 329H290.208V314.4H288.468V329ZM294.343 321.7C294.343 320.8 295.223 320.36 296.123 320.36C297.003 320.36 297.883 320.74 298.263 321.64L299.723 320.82C299.083 319.52 297.763 318.74 296.123 318.74C294.103 318.74 292.583 319.96 292.583 321.72C292.583 325.34 298.183 324.12 298.183 326.26C298.183 327.24 297.263 327.62 296.203 327.62C294.963 327.62 294.043 327.02 293.723 326.06L292.223 326.92C292.803 328.3 294.203 329.26 296.203 329.26C298.343 329.26 299.943 328.12 299.943 326.26C299.943 322.58 294.343 323.84 294.343 321.7ZM312.444 320.68V319H309.784V316.2L308.044 316.72V319H306.064V320.68H308.044V326.1C308.044 328.6 309.444 329.4 312.444 329V327.44C310.664 327.52 309.784 327.62 309.784 326.1V320.68H312.444ZM319.484 318.74C318.084 318.74 316.984 319.26 316.244 320.44V315H314.504V329H316.244V323.7C316.244 321.34 317.544 320.4 319.144 320.4C320.684 320.4 321.624 321.32 321.624 322.96V329H323.364V322.86C323.364 320.3 321.824 318.74 319.484 318.74ZM334.073 319V320.72C333.273 319.5 331.993 318.74 330.293 318.74C327.513 318.74 325.233 321.04 325.233 324C325.233 326.96 327.513 329.26 330.293 329.26C331.993 329.26 333.273 328.5 334.073 327.28V329H335.813V319H334.073ZM330.513 327.58C328.513 327.58 326.973 326.04 326.973 324C326.973 321.96 328.513 320.42 330.513 320.42C332.533 320.42 334.073 321.96 334.073 324C334.073 326.04 332.533 327.58 330.513 327.58ZM343.889 320.68V319H341.229V316.2L339.489 316.72V319H337.509V320.68H339.489V326.1C339.489 328.6 340.889 329.4 343.889 329V327.44C342.109 327.52 341.229 327.62 341.229 326.1V320.68H343.889ZM359.288 319V320.72C358.488 319.5 357.208 318.74 355.508 318.74C352.728 318.74 350.448 321.04 350.448 324C350.448 326.96 352.728 329.26 355.508 329.26C357.208 329.26 358.488 328.5 359.288 327.28V329H361.028V319H359.288ZM355.728 327.58C353.728 327.58 352.188 326.04 352.188 324C352.188 321.96 353.728 320.42 355.728 320.42C357.748 320.42 359.288 321.96 359.288 324C359.288 326.04 357.748 327.58 355.728 327.58ZM365.404 320.68V319H363.664V329H365.404V323.7C365.404 321.34 367.024 320.58 368.524 320.64V318.82C367.264 318.82 366.044 319.28 365.404 320.68ZM370.899 324.8H379.279C379.319 324.54 379.339 324.28 379.339 324.02C379.339 321.22 377.379 318.74 374.359 318.74C371.239 318.74 369.119 321.04 369.119 324C369.119 327 371.259 329.26 374.479 329.26C376.479 329.26 377.999 328.36 378.879 327L377.399 326.16C376.899 326.98 375.899 327.62 374.519 327.62C372.659 327.62 371.239 326.6 370.899 324.8ZM374.359 320.38C375.859 320.38 377.279 321.3 377.579 323.28H370.899C371.179 321.54 372.479 320.38 374.359 320.38ZM62.82 351.7C62.82 350.8 63.7 350.36 64.6 350.36C65.48 350.36 66.36 350.74 66.74 351.64L68.2 350.82C67.56 349.52 66.24 348.74 64.6 348.74C62.58 348.74 61.06 349.96 61.06 351.72C61.06 355.34 66.66 354.12 66.66 356.26C66.66 357.24 65.74 357.62 64.68 357.62C63.44 357.62 62.52 357.02 62.2 356.06L60.7 356.92C61.28 358.3 62.68 359.26 64.68 359.26C66.82 359.26 68.42 358.12 68.42 356.26C68.42 352.58 62.82 353.84 62.82 351.7ZM77.2825 349V354.3C77.2825 356.66 75.9825 357.6 74.3825 357.6C72.8425 357.6 71.9025 356.68 71.9025 355.04V349H70.1625V355.14C70.1625 357.7 71.7025 359.26 74.0425 359.26C75.4425 359.26 76.5425 358.74 77.2825 357.56V359H79.0225V349H77.2825ZM82.5516 347.18C83.1916 347.18 83.7116 346.66 83.7116 346.02C83.7116 345.38 83.1916 344.84 82.5516 344.84C81.8916 344.84 81.3716 345.38 81.3716 346.02C81.3716 346.66 81.8916 347.18 82.5516 347.18ZM81.6716 359H83.4116V349H81.6716V359ZM91.5061 350.68V349H88.8461V346.2L87.1061 346.72V349H85.1261V350.68H87.1061V356.1C87.1061 358.6 88.5061 359.4 91.5061 359V357.44C89.7261 357.52 88.8461 357.62 88.8461 356.1V350.68H91.5061ZM101.338 349V350.72C100.538 349.5 99.2583 348.74 97.5583 348.74C94.7783 348.74 92.4983 351.04 92.4983 354C92.4983 356.96 94.7783 359.26 97.5583 359.26C99.2583 359.26 100.538 358.5 101.338 357.28V359H103.078V349H101.338ZM97.7783 357.58C95.7783 357.58 94.2383 356.04 94.2383 354C94.2383 351.96 95.7783 350.42 97.7783 350.42C99.7983 350.42 101.338 351.96 101.338 354C101.338 356.04 99.7983 357.58 97.7783 357.58ZM111.235 348.74C109.535 348.74 108.255 349.5 107.455 350.72V345H105.715V359H107.455V357.28C108.255 358.5 109.535 359.26 111.235 359.26C114.015 359.26 116.295 356.96 116.295 354C116.295 351.04 114.015 348.74 111.235 348.74ZM111.015 357.58C108.995 357.58 107.455 356.04 107.455 354C107.455 351.96 108.995 350.42 111.015 350.42C113.015 350.42 114.555 351.96 114.555 354C114.555 356.04 113.015 357.58 111.015 357.58ZM118.371 359H120.111V344.4H118.371V359ZM123.985 354.8H132.365C132.405 354.54 132.425 354.28 132.425 354.02C132.425 351.22 130.465 348.74 127.445 348.74C124.325 348.74 122.205 351.04 122.205 354C122.205 357 124.345 359.26 127.565 359.26C129.565 359.26 131.085 358.36 131.965 357L130.485 356.16C129.985 356.98 128.985 357.62 127.605 357.62C125.745 357.62 124.325 356.6 123.985 354.8ZM127.445 350.38C128.945 350.38 130.365 351.3 130.665 353.28H123.985C124.265 351.54 125.565 350.38 127.445 350.38ZM144.565 346.42V344.74C141.705 344.54 140.185 346.04 140.185 348.7V349H138.585V350.68H140.185V359H141.925V350.68H144.565V349H141.925V348.7C141.925 346.96 142.825 346.28 144.565 346.42ZM150.043 359.26C152.963 359.26 155.323 356.96 155.323 354C155.323 351.04 152.963 348.74 150.043 348.74C147.123 348.74 144.783 351.04 144.783 354C144.783 356.96 147.123 359.26 150.043 359.26ZM150.043 357.56C148.063 357.56 146.523 356.02 146.523 354C146.523 351.98 148.063 350.44 150.043 350.44C152.043 350.44 153.583 351.98 153.583 354C153.583 356.02 152.043 357.56 150.043 357.56ZM159.115 350.68V349H157.375V359H159.115V353.7C159.115 351.34 160.735 350.58 162.235 350.64V348.82C160.975 348.82 159.755 349.28 159.115 350.68ZM175.917 349L173.037 356.84L169.637 349H167.777L172.137 358.96L171.957 359.34C171.437 360.66 170.597 361.48 169.257 361.38V363C171.297 363.14 172.857 361.86 173.697 359.62L177.777 349H175.917ZM183.54 359.26C186.46 359.26 188.82 356.96 188.82 354C188.82 351.04 186.46 348.74 183.54 348.74C180.62 348.74 178.28 351.04 178.28 354C178.28 356.96 180.62 359.26 183.54 359.26ZM183.54 357.56C181.56 357.56 180.02 356.02 180.02 354C180.02 351.98 181.56 350.44 183.54 350.44C185.54 350.44 187.08 351.98 187.08 354C187.08 356.02 185.54 357.56 183.54 357.56ZM197.771 349V354.3C197.771 356.66 196.471 357.6 194.871 357.6C193.331 357.6 192.391 356.68 192.391 355.04V349H190.651V355.14C190.651 357.7 192.191 359.26 194.531 359.26C195.931 359.26 197.031 358.74 197.771 357.56V359H199.511V349H197.771ZM203.9 350.68V349H202.16V359H203.9V353.7C203.9 351.34 205.52 350.58 207.02 350.64V348.82C205.76 348.82 204.54 349.28 203.9 350.68ZM222.002 345V350.72C221.202 349.5 219.922 348.74 218.222 348.74C215.442 348.74 213.162 351.04 213.162 354C213.162 356.96 215.442 359.26 218.222 359.26C219.922 359.26 221.202 358.5 222.002 357.28V359H223.742V345H222.002ZM218.442 357.58C216.442 357.58 214.902 356.04 214.902 354C214.902 351.96 216.442 350.42 218.442 350.42C220.462 350.42 222.002 351.96 222.002 354C222.002 356.04 220.462 357.58 218.442 357.58ZM228.119 350.68V349H226.379V359H228.119V353.7C228.119 351.34 229.739 350.58 231.239 350.64V348.82C229.979 348.82 228.759 349.28 228.119 350.68ZM233.614 354.8H241.994C242.034 354.54 242.054 354.28 242.054 354.02C242.054 351.22 240.094 348.74 237.074 348.74C233.954 348.74 231.834 351.04 231.834 354C231.834 357 233.974 359.26 237.194 359.26C239.194 359.26 240.714 358.36 241.594 357L240.114 356.16C239.614 356.98 238.614 357.62 237.234 357.62C235.374 357.62 233.954 356.6 233.614 354.8ZM237.074 350.38C238.574 350.38 239.994 351.3 240.294 353.28H233.614C233.894 351.54 235.194 350.38 237.074 350.38ZM252.315 349V350.72C251.515 349.5 250.235 348.74 248.535 348.74C245.755 348.74 243.475 351.04 243.475 354C243.475 356.96 245.755 359.26 248.535 359.26C250.235 359.26 251.515 358.5 252.315 357.28V359H254.055V349H252.315ZM248.755 357.58C246.755 357.58 245.215 356.04 245.215 354C245.215 351.96 246.755 350.42 248.755 350.42C250.775 350.42 252.315 351.96 252.315 354C252.315 356.04 250.775 357.58 248.755 357.58ZM267.491 348.74C266.191 348.74 265.051 349.3 264.351 350.44C263.771 349.36 262.771 348.74 261.411 348.74C260.191 348.74 259.151 349.22 258.431 350.34V349H256.691V359H258.431V353.44C258.431 351.28 259.651 350.4 260.991 350.4C262.291 350.4 263.111 351.26 263.111 352.84V359H264.851V353.44C264.851 351.28 265.911 350.4 267.311 350.4C268.631 350.4 269.511 351.26 269.511 352.84V359H271.251V352.78C271.251 350.28 269.711 348.74 267.491 348.74ZM283.644 348.74C282.244 348.74 281.144 349.26 280.404 350.44V345H278.664V359H280.404V353.7C280.404 351.34 281.704 350.4 283.304 350.4C284.844 350.4 285.784 351.32 285.784 352.96V359H287.524V352.86C287.524 350.3 285.984 348.74 283.644 348.74ZM294.653 359.26C297.573 359.26 299.933 356.96 299.933 354C299.933 351.04 297.573 348.74 294.653 348.74C291.733 348.74 289.393 351.04 289.393 354C289.393 356.96 291.733 359.26 294.653 359.26ZM294.653 357.56C292.673 357.56 291.133 356.02 291.133 354C291.133 351.98 292.673 350.44 294.653 350.44C296.653 350.44 298.193 351.98 298.193 354C298.193 356.02 296.653 357.56 294.653 357.56ZM312.784 348.74C311.484 348.74 310.344 349.3 309.644 350.44C309.064 349.36 308.064 348.74 306.704 348.74C305.484 348.74 304.444 349.22 303.724 350.34V349H301.984V359H303.724V353.44C303.724 351.28 304.944 350.4 306.284 350.4C307.584 350.4 308.404 351.26 308.404 352.84V359H310.144V353.44C310.144 351.28 311.204 350.4 312.604 350.4C313.924 350.4 314.804 351.26 314.804 352.84V359H316.544V352.78C316.544 350.28 315.004 348.74 312.784 348.74ZM320.177 354.8H328.557C328.597 354.54 328.617 354.28 328.617 354.02C328.617 351.22 326.657 348.74 323.637 348.74C320.517 348.74 318.397 351.04 318.397 354C318.397 357 320.537 359.26 323.757 359.26C325.757 359.26 327.277 358.36 328.157 357L326.677 356.16C326.177 356.98 325.177 357.62 323.797 357.62C321.937 357.62 320.517 356.6 320.177 354.8ZM323.637 350.38C325.137 350.38 326.557 351.3 326.857 353.28H320.177C320.457 351.54 321.757 350.38 323.637 350.38Z" fill="#898989"/>
<rect x="60" y="415" width="374" height="78" fill="#E89F71"/>
<path d="M206.06 461.26C208.98 461.26 211.02 459.7 211.02 457.14C211.02 454.36 208.68 453.64 206.36 452.9C204.32 452.26 203.54 451.8 203.54 450.72C203.54 449.66 204.4 448.98 205.74 448.98C207.3 448.98 208.18 449.82 208.68 450.94L210.62 449.82C209.74 447.96 208.04 446.74 205.74 446.74C203.38 446.74 201.24 448.2 201.24 450.78C201.24 453.42 203.36 454.22 205.54 454.88C207.62 455.52 208.72 455.94 208.72 457.18C208.72 458.2 207.94 459.02 206.12 459.02C204.22 459.02 203.14 458.08 202.64 456.66L200.66 457.82C201.4 459.9 203.3 461.26 206.06 461.26ZM218.141 450.74C216.781 450.74 215.701 451.24 215.041 452.28V447H212.881V461H215.041V455.64C215.041 453.6 216.161 452.76 217.581 452.76C218.941 452.76 219.821 453.56 219.821 455.08V461H221.981V454.86C221.981 452.26 220.381 450.74 218.141 450.74ZM229.027 461.26C231.967 461.26 234.307 458.96 234.307 456C234.307 453.02 231.967 450.74 229.027 450.74C226.107 450.74 223.747 453.02 223.747 456C223.747 458.96 226.107 461.26 229.027 461.26ZM229.027 459.16C227.267 459.16 225.907 457.82 225.907 456C225.907 454.18 227.267 452.84 229.027 452.84C230.787 452.84 232.147 454.18 232.147 456C232.147 457.82 230.787 459.16 229.027 459.16ZM241.92 450.74C240.36 450.74 239.18 451.38 238.42 452.44V451H236.26V465H238.42V459.58C239.18 460.62 240.36 461.26 241.92 461.26C244.64 461.26 246.9 458.98 246.9 456C246.9 453.04 244.64 450.74 241.92 450.74ZM241.58 459.2C239.78 459.2 238.42 457.86 238.42 456C238.42 454.14 239.78 452.8 241.58 452.8C243.38 452.8 244.74 454.14 244.74 456C244.74 457.86 243.38 459.2 241.58 459.2ZM262.398 447V456.5L255.798 447H253.998V461H256.298V451.5L262.898 461H264.698V447H262.398ZM272.074 461.26C275.014 461.26 277.354 458.96 277.354 456C277.354 453.02 275.014 450.74 272.074 450.74C269.154 450.74 266.794 453.02 266.794 456C266.794 458.96 269.154 461.26 272.074 461.26ZM272.074 459.16C270.314 459.16 268.954 457.82 268.954 456C268.954 454.18 270.314 452.84 272.074 452.84C273.834 452.84 275.194 454.18 275.194 456C275.194 457.82 273.834 459.16 272.074 459.16ZM290.436 451L288.476 457.9L286.396 451H284.336L282.236 457.9L280.296 451H278.016L281.156 461H283.276L285.376 454.26L287.456 461H289.576L292.716 451H290.436Z" fill="white"/>
<defs>
<filter id="filter0_b_40_765" x="-31" y="-31" width="556" height="615" filterUnits="userSpaceOnUse" color-interpolation-filters="sRGB">
<feFlood flood-opacity="0" result="BackgroundImageFix"/>
<feGaussianBlur in="BackgroundImageFix" stdDeviation="15.5"/>
<feComposite in2="SourceAlpha" operator="in" result="effect1_backgroundBlur_40_765"/>
<feBlend mode="normal" in="SourceGraphic" in2="effect1_backgroundBlur_40_765" result="shape"/>
</filter>
</defs>
</svg>
