<svg width="245" height="48" viewBox="0 0 245 48" fill="none" xmlns="http://www.w3.org/2000/svg">
<rect x="0.5" y="0.5" width="244" height="47" fill="white" stroke="#E89F71"/>
<path d="M86.848 29.208C89.184 29.208 90.816 27.96 90.816 25.912C90.816 23.688 88.944 23.112 87.088 22.52C85.456 22.008 84.832 21.64 84.832 20.776C84.832 19.928 85.52 19.384 86.592 19.384C87.84 19.384 88.544 20.056 88.944 20.952L90.496 20.056C89.792 18.568 88.432 17.592 86.592 17.592C84.704 17.592 82.992 18.76 82.992 20.824C82.992 22.936 84.688 23.576 86.432 24.104C88.096 24.616 88.976 24.952 88.976 25.944C88.976 26.76 88.352 27.416 86.896 27.416C85.376 27.416 84.512 26.664 84.112 25.528L82.528 26.456C83.12 28.12 84.64 29.208 86.848 29.208ZM96.5129 20.792C95.4249 20.792 94.5609 21.192 94.0329 22.024V17.8H92.3049V29H94.0329V24.712C94.0329 23.08 94.9289 22.408 96.0649 22.408C97.1529 22.408 97.8569 23.048 97.8569 24.264V29H99.5849V24.088C99.5849 22.008 98.3049 20.792 96.5129 20.792ZM105.222 29.208C107.574 29.208 109.446 27.368 109.446 25C109.446 22.616 107.574 20.792 105.222 20.792C102.886 20.792 100.998 22.616 100.998 25C100.998 27.368 102.886 29.208 105.222 29.208ZM105.222 27.528C103.814 27.528 102.726 26.456 102.726 25C102.726 23.544 103.814 22.472 105.222 22.472C106.63 22.472 107.718 23.544 107.718 25C107.718 26.456 106.63 27.528 105.222 27.528ZM119.912 21L118.344 26.52L116.68 21H115.032L113.352 26.52L111.799 21H109.976L112.488 29H114.184L115.864 23.608L117.528 29H119.224L121.736 21H119.912ZM137.84 17.8H135.872L132.48 23.4L129.104 17.8H127.12V29H128.96V21L132.368 26.648H132.592L136 21.016V29H137.84V17.8ZM143.737 29.208C146.089 29.208 147.961 27.368 147.961 25C147.961 22.616 146.089 20.792 143.737 20.792C141.401 20.792 139.513 22.616 139.513 25C139.513 27.368 141.401 29.208 143.737 29.208ZM143.737 27.528C142.329 27.528 141.241 26.456 141.241 25C141.241 23.544 142.329 22.472 143.737 22.472C145.145 22.472 146.233 23.544 146.233 25C146.233 26.456 145.145 27.528 143.737 27.528ZM151.252 22.344V21H149.524V29H151.252V24.968C151.252 23.176 152.58 22.648 153.716 22.728V20.856C152.708 20.856 151.732 21.256 151.252 22.344ZM155.977 25.736H162.345C162.377 25.512 162.409 25.256 162.409 25.016C162.409 22.712 160.777 20.792 158.393 20.792C155.881 20.792 154.169 22.632 154.169 25C154.169 27.4 155.881 29.208 158.521 29.208C160.089 29.208 161.289 28.552 162.025 27.464L160.601 26.632C160.217 27.192 159.497 27.624 158.537 27.624C157.257 27.624 156.249 26.984 155.977 25.736ZM155.961 24.328C156.201 23.128 157.081 22.36 158.377 22.36C159.417 22.36 160.425 22.952 160.665 24.328H155.961Z" fill="#E89F71"/>
</svg>
